<?xml version="1.0" encoding="utf-8"?>
<!-- Generator: Adobe Illustrator 22.0.1, SVG Export Plug-In . SVG Version: 6.00 Build 0)  -->
<svg version="1.1" id="Layer_1" xmlns="http://www.w3.org/2000/svg" xmlns:xlink="http://www.w3.org/1999/xlink" x="0px" y="0px"
	 viewBox="0 0 600 150" style="enable-background:new 0 0 600 150;" xml:space="preserve">
<style type="text/css">
	.st0{fill:#FFFFFF;}
	.st1{fill:#535454;}
</style>
<g>
	<path class="st0" d="M131.3,45.3h0.9l1.2,0.1h1.2l3.2,0.6l0.9,0.5l1,0.5l1,1.6l0.1,1v3.2l-0.3,2.1l0.1,1.2l-0.1,1v4.4l-0.1,1v6.6
		l-0.1,1v3.2l0.1,1.2l-0.1,1.2l0.1,0.9v2.3l-0.1,2.1v1.2l-0.1,1l-0.3,1.2l-0.1,1l0.1,1v2.2l-0.1,1.2l0.1,1l-0.1,1.2v1l0.1,1.2l0.1,1
		l0.3,1l0.4,0.9l0.5,1l0.6,0.8l0.6,0.6l2.1,0.5h5.3l1.2-0.1l1.4,0.1h1.4l1.9,0.1l1.2,1.8l0.4,1.7l0.1,2.7l0.1,1l-0.1,0.9l0.1,2.1
		l-0.9,1.7l-0.8,0.5l-0.9,0.4h-1l-1.2,0.1l-1.9-0.1h-3.5l-1-0.3H145l-2.6,0.1h-2.5l-2.3-0.1h-1l-2.1-0.1h-1l-1-0.1l-3.2,0.1h-2.5
		l-1,0.1h-1.2l-2.2,0.1H116l-2.3-0.3h-1l-1.2-0.3h-1.2l-2.1-0.5l-0.3-1.8l0.5-0.9l0.8-0.9l1.6-1.6l0.6-0.8l0.8-0.8l1.8-1.6l0.9-0.6
		l2.7-2.3l0.8-0.8l0.9-0.6l1.8-1.7l0.6-0.8l0.8-0.9l0.5-0.9l-0.9-2.2l-1.6-1.7l-0.9-0.5l-0.6-0.6l-1.7-1.2l-0.9-0.5l-0.9-0.6l-1.8-1
		l-0.8-0.5l-1.9-1.2l-0.9-0.6l-1-0.6l-0.8-0.9l-1-0.6l-0.8-0.9l-1.5-1l-0.3-1l0.1-0.8l1.3-1.3l1.6-1.3l0.9-0.6l0.8-0.8l0.8-0.6
		l1-0.5l0.6-0.8l1.9-1.3l0.9-0.9l0.9-0.6l0.9-0.8l2.7-1.9l0.9-0.5l1-0.6l0.6-0.8l0.5-0.9l-1.2-1.9l-0.8-0.8l-0.8-0.9l-2.2-2.2
		l-0.5-0.8l-0.9-0.8l-1.3-1.6l-0.9-0.9l-0.9-0.6l-0.8-0.9L111,52l-1.7-1.7l-1-1.3l-0.8-1.2l0.3-1.3l3.9-0.6l1-0.1l1.2,0.1h2.1l3-0.1
		h2.1l2.2-0.1l1-0.1h2.2l1-0.1h2.3L131.3,45.3z M200.1,100.5l-1,0.3H196l-2.2-0.1l-1,0.1h-2.1l-1.2,0.1l-2.1-0.1l-1,0.3l-1.3-0.1h-1
		l-1,0.1l-2.1,0.1l-2.2-0.1h-1l-2.2,0.3l-1-0.1l-1,0.1h-2.1l-1.2-0.1h-1l-1.2,0.1h-3l-1.7,0.4l-0.3,2.9l0.1,2.6l0.1,3.1l-0.1,2.7
		l0.1,1l-0.1,0.9l0.1,2.1l-0.9,1.7l-0.8,0.5l-0.9,0.4h-1l-1.2,0.1l-1.9-0.1h-3.5l-1-0.3h-1.3l-2.6,0.1h-2.5l-2.3-0.1h-1l-2.1-0.1h-1
		l-1-0.1l-3.2,0.1h-2.5l-1,0.1h-1.2l-2.2,0.1h-6.5l-2.3-0.3h-1l-1.2-0.3H116l-2.1-0.5l-0.3-1.6l1.3-1l0.8,0.1h1l2.3,0.3h6.5l2.2-0.1
		h1.2l1-0.1h2.5l3.2-0.1l1,0.1h1l2.1,0.1h1l2.3,0.1h2.5l2.6-0.1h1.3l1,0.3h3.5l1.9,0.1l1.2-0.1h1l0.9-0.4l0.8-0.5l0.9-1.7l-0.1-2.1
		l0.1-0.9l-0.1-1l-0.1-2.9l0.1-2.9l-0.4-3.8l0.4-1.9l2.7-0.5l2.1,0.3l1.2-0.1h1l1.2,0.1h2.1l1-0.1l1,0.1l2.2-0.3h1l2.2,0.1l2.1-0.1
		l1-0.1h1l1.3,0.1l1-0.3l2.1,0.1l1.2-0.1h2.1l1-0.1l2.2,0.1h3.1l1-0.1l2.6-0.3v3.4H200.1z M194.6,94.4l-1,0.1h-3.1l-2.2-0.1l-1,0.1
		h-2.1l-1.2,0.1l-2.1-0.1l-1,0.3l-1.3-0.1h-1l-1,0.1l-2.1,0.1l-2.2-0.1h-1l-2.2,0.3l-1-0.1l-1,0.1H166l-1.2-0.1h-1l-1.2,0.1h-9.1
		l-1.2-0.1l-1.3-0.3l-2.1-0.9l-0.6-1l-0.6-0.9l-0.4-1.2l-0.1-1.2l-0.1-1l-0.1-1.2l0.1-1v-3.5l0.3-1.2v-3.2l-0.1-1.2l0.1-1l-0.1-1
		l-0.1-1.3l0.1-1v-1.2l-0.1-0.9l0.1-1.2l-0.1-1.2v-1l0.1-1.2v-1l0.1-1.2l-0.1-1.2l0.1-0.9v-2.3l-0.1-0.9l0.1-1.2l-0.1-1l0.1-1.3v-1
		l0.1-1.2v-1l-0.1-1.2v-1l0.1-1v-2.3l-0.1-0.9l0.1-1.3v-2.1l-0.1-1.2l0.1-1v-2.2l-0.1-1.2l-0.3-1v-2.3l-0.1-1v-1.2l0.1-1.2l0.3-1
		l0.5-1l1.7-1.2l0.9-0.3h4.3l1.9,0.1h5.6l0.9,0.1l1.3-0.1l1-0.1l1.2,0.1l2.3-0.1h2.3l3.4-0.1l1.2,0.1l0.9-0.1l1.3,0.1l2.2-0.1l1,0.1
		l1.2-0.1h2.2l1-0.1l1.2,0.1l5.6-0.1h1.2l1.2-0.1v68.3H194.6z"/>
	<path class="st0" d="M245,25.9h1.2v68.4h-6.7l-1,0.1h-1.2l-1-0.1H234l-1.2-0.1l-2.1,0.1h-1.2l-1.2-0.1h-2.2L225,94l-1.2,0.1h-1.2
		l-1,0.1l-3.5-0.1h-4.5l-2.1,0.1l-1.3-0.1l-0.9,0.1l-1.3-0.1h-4.3l-1.3,0.1h-3.2l-2.3-0.3l-1,0.1l-1.3,0.1V25.9h2.2l1.3-0.1l0.9,0.1
		h4.4l1.2-0.1h2.1l2.2,0.1l2.2-0.3l1,0.1h3.2l2.2,0.1h5.6L224,26l1.2-0.1l4.4,0.1l1.2-0.1l1,0.1l1-0.1h1.2l1,0.1l2.2-0.1l1.2,0.1
		h1.2l1-0.1l1,0.1l1.2-0.1l1,0.1L245,25.9z M251.7,97.1L249,97l-6.6,0.3l-1,0.1h-1.2l-1-0.1H237l-1.2-0.1l-2.1,0.1l-1.2-0.3
		l-1.2,0.1h-2.2L228,97l-1.2,0.1h-6.4l-2.1,0.1l-2.6-0.1l-0.9,0.1l-1.3-0.3h-1l-3.8,0.1h-2.1l-1.3,0.1h-3.2l-1.4-0.1h-0.6v3.4
		l1.3-0.1l1-0.1l2.3,0.3h3.2l1.3-0.1h2.1l1.2-0.1h2.3l2.6,0.3l0.9-0.1l1.3,0.1l3.4-0.1h6.4l1.2-0.1l1.2,0.1h2.2l1.2-0.1l1.2,0.3
		l2.1-0.1l1.2,0.1h2.2l1,0.1h1.2l1-0.1h6.7L251.7,97.1L251.7,97.1z"/>
	<path class="st0" d="M296.6,25.9h1.2v68.4H291l-1,0.1h-1.2l-1-0.1h-2.2l-1.2-0.1l-2.1,0.1h-1.2l-1.2-0.1h-2.2l-1.2-0.1l-1.2,0.1
		h-1.2l-1,0.1l-3.5-0.1h-4.5l-2.1,0.1l-1.3-0.1l-0.9,0.1l-1.3-0.1h-4.3l-1.3,0.1h-3.2l-2.3-0.3l-1,0.1l-1.3,0.1V25.9h2.2l1.3-0.1
		l0.9,0.1h4.4l1.2-0.1h2.1l2.2,0.1l2.2-0.3l1,0.1h3.2l2.2,0.1h5.6l0.9,0.1l1.2-0.1l4.4,0.1l1.2-0.1l1,0.1l1-0.1h1.2l1,0.1l2.2-0.1
		L290,26h1.2l1-0.1l1,0.1l1.2-0.1l1,0.1L296.6,25.9z M303.3,97.1l-2.7-0.1l-6.6,0.3l-1,0.1h-1.2l-1-0.1h-2.2l-1.2-0.1l-2.1,0.1
		l-1.2-0.3l-1.2,0.1h-2.2l-1.2-0.1l-1.2,0.1h-6.4l-2.1,0.1l-2.6-0.1l-0.9,0.1l-1.3-0.3h-1l-3.8,0.1h-2.1l-1.3,0.1h-3.2l-1.4-0.1
		h-0.6v3.4l1.3-0.1l1-0.1l2.3,0.3h3.2l1.3-0.1h2.1l1.2-0.1h2.3l2.6,0.3l0.9-0.1l1.3,0.1l3.4-0.1h6.4l1.2-0.1l1.2,0.1h2.2l1.2-0.1
		l1.2,0.3l2.1-0.1l1.2,0.1h2.2l1,0.1h1.2l1-0.1h6.7V97.1z"/>
	<path class="st0" d="M348.1,25.9h1.2v68.4h-6.7l-1,0.1h-1.2l-1-0.1h-2.2l-1.2-0.1l-2.1,0.1h-1.2l-1.2-0.1h-2.2l-1.2-0.1l-1.2,0.1
		h-1.2l-1,0.1l-3.5-0.1h-4.5l-2.1,0.1l-1.3-0.1l-0.9,0.1l-1.3-0.1h-4.3l-1.3,0.1h-3.2L300,94l-1,0.1l-1.3,0.1V25.9h2.2l1.3-0.1
		l0.9,0.1h4.4l1.2-0.1h2.1l2.2,0.1l2.2-0.3l1,0.1h3.2l2.2,0.1h5.6l0.9,0.1l1.2-0.1l4.4,0.1l1.2-0.1l1,0.1l1-0.1h1.2l1,0.1l2.2-0.1
		l1.2,0.1h1.2l1-0.1l1,0.1l1.2-0.1l1,0.1L348.1,25.9z M354.9,97.1l-2.7-0.1l-6.6,0.3l-1,0.1h-1.2l-1-0.1h-2.2l-1.2-0.1l-2.1,0.1
		l-1.2-0.3l-1.2,0.1h-2.2l-1.2-0.1l-1.2,0.1h-6.4l-2.1,0.1l-2.6-0.1l-0.9,0.1l-1.3-0.3h-1l-3.8,0.1h-2.1l-1.3,0.1h-3.2l-1.4-0.1
		h-0.6v3.4l1.3-0.1l1-0.1l2.3,0.3h3.2l1.3-0.1h2.1l1.2-0.1h2.3l2.6,0.3l0.9-0.1l1.3,0.1l3.4-0.1h6.4l1.2-0.1l1.2,0.1h2.2l1.2-0.1
		l1.2,0.3l2.1-0.1l1.2,0.1h2.2l1,0.1h1.2l1-0.1h6.7L354.9,97.1L354.9,97.1z"/>
	<path class="st0" d="M399.7,25.9h1.2v68.4h-6.7l-1,0.1H392l-1-0.1h-2.2l-1.2-0.1l-2.1,0.1h-1.2l-1.2-0.1h-2.2l-1.2-0.1l-1.2,0.1
		h-1.2l-1,0.1l-3.5-0.1h-4.5l-2.1,0.1l-1.3-0.1l-0.9,0.1l-1.3-0.1h-4.3l-1.3,0.1H354l-2.3-0.3l-1,0.1l-1.3,0.1V25.9h2.2l1.3-0.1
		l0.9,0.1h4.4l1.2-0.1h2.1l2.2,0.1l2.2-0.3l1,0.1h3.2l2.2,0.1h5.6l0.9,0.1l1.2-0.1l4.4,0.1l1.2-0.1l1,0.1l1-0.1h1.2l1,0.1l2.2-0.1
		l1.2,0.1h1.2l1-0.1l1,0.1l1.2-0.1l1,0.1L399.7,25.9z M406.5,97.1l-2.7-0.1l-6.6,0.3l-1,0.1H395l-1-0.1h-2.2l-1.2-0.1l-2.1,0.1
		l-1.2-0.3l-1.2,0.1h-2.2l-1.2-0.1l-1.2,0.1h-6.4l-2.1,0.1l-2.6-0.1l-0.9,0.1l-1.3-0.3h-1l-3.8,0.1h-2.1l-1.3,0.1h-3l-1.4-0.1H355
		v3.4l1.3-0.1l1-0.1l2.3,0.3h3.2l1.3-0.1h2.1l1.2-0.1h2.3l2.6,0.3l0.9-0.1l1.3,0.1l3.4-0.1h6.4l1.2-0.1l1.2,0.1h2.2l1.2-0.1l1.2,0.3
		l2.1-0.1l1.2,0.1h2.2l1,0.1h1.2l1-0.1h6.7v-3.6H406.5z"/>
	<path class="st0" d="M403.2,25.7h4.4l1.2,0.1h2.1l1.3-0.1h1l2.1,0.1h4.4L421,26h8.9l1.2,0.1h3.5l1.2,0.1l1.2-0.1l1.3-0.1l2.6-0.1
		h3.2l1,0.1l0.9,0.1l1.7,1.3l0.5,0.9l0.1,1.2l0.3,1.2v2.2l-0.1,1v1.3l-0.1,1l-0.3,1l0.1,2.2l-0.1,1.2v8.8l0.1,1.2v1l-0.1,1.2l0.1,1
		V56l0.1,1l-0.1,1.2v0.9l0.1,1.3l-0.1,1v1.2l0.1,0.9V67l0.1,0.9l-0.1,1.2l0.1,1.2l-0.1,1v4.4l-0.1,1l0.1,1.3l-0.1,1v2.2l0.3,0.9v2.1
		l0.1,1.2v1.2l-0.1,1v1l-0.1,1.2l-0.3,1l-0.9,1.8l-0.8,0.8l-2.1,0.9l-1,0.1l-1.3,0.1l-2.3,0.1l-1-0.1h-4.5l-2.2,0.1l-1.2-0.1
		l-1.2,0.1l-2.1-0.3l-0.9,0.1l-1.2-0.1h-3.2l-1.2-0.1l-0.9,0.1l-3.2-0.1l-1.2-0.1h-1.2l-0.9,0.1l-1-0.1l-1.2,0.1l-1-0.1h-4.3
		l-1.2-0.1h-3l-1,0.1V25.9l1.2-0.3L403.2,25.7z M432.1,100.9l-1.2-0.1h-3.2l-1.2-0.1l-0.9,0.1l-3.2-0.1l-1.2-0.1H420l-0.9,0.1
		l-1-0.1l-1.2,0.1l-1-0.1h-4.3l-1.2-0.1h-3l-1,0.1v-3.4h1.4l1.2,0.1h4.3l1,0.1l1.2-0.1l1,0.1l0.9-0.1h1.2l1.2,0.1l3.2,0.1l0.9-0.1
		l1.2,0.1h3.2l1.2,0.1l0.9-0.1l2.1,0.3l1.6,0.8v1.2l-1,1L432.1,100.9z M471.3,45.7l1.3,0.1l1-0.1h1.2l0.9,0.1l2.3,0.3h1l2.2,0.3h2.2
		l1.2,0.3h1l2.1,1l0.4,0.9l-0.4,1.3l-0.6,1.2l-1.6,1.4l-0.9,0.8l-0.8,0.6l-0.8,0.8l-1,0.9l-1.7,1.3l-1.6,1.6L478,59l-1,0.5l-0.8,0.8
		l-0.9,0.6l-0.6,0.9l-0.8,1.9L474,65l0.8,0.8l2.7,1.9l1.8,1.4l1,0.8l0.8,0.6l1,0.8l1.8,1.4l1,0.5l0.8,0.6l1,0.5l0.8,0.6l0.9,0.6
		l0.8,0.8l0.8,0.6l0.6,2.1l-0.5,1l-0.8,0.9l-0.8,0.8l-1,0.8l-1.8,1.2l-0.8,0.8l-0.9,0.6l-1,0.5l-0.9,0.6l-1,0.8l-0.9,0.6l-0.8,0.6
		l-1,0.6l-0.8,0.6l-1,0.6l-0.8,0.9l-1.6,1.4l-0.8,0.9l-0.4,0.9v1l0.4,0.9l0.8,0.8l0.8,0.9l1.6,1.4l0.6,0.6l0.9,0.8l1.6,1.4l0.6,0.5
		l0.9,0.6l0.9,0.8l1.4,1.4l0.9,0.6l0.8,0.8l1.3,1.7l0.6,0.8l0.4,1l0.3,0.9l-0.4,0.9l-0.8,0.8l-1,0.1l-1,0.3l-1,0.1l-1.2,0.1
		l-1.3-0.1H480l-1.2-0.1l-1,0.1l-2.2-0.1l-1.2,0.1l-1-0.1l-1.2,0.1l-1-0.1H468l-1.2-0.1l-1.2,0.1l-1.2-0.1h-7.6l-1-0.1l-1.2,0.1
		l-1-0.1h-1.2l-2.3,0.1l-0.9-0.1l-2.1,0.3h-1.9L443,114l-1.2-0.1l-1-0.3l-1.2-0.4l-1.3-1.6l-0.5-0.9l-0.3-1.2l0.1-1.2l-0.1-1v-4.9
		l0.5-1.4l1.9-0.4l1.4,0.3l1.2-0.3h1.2l1-0.1l1,0.1l1.3,0.3l1.2-0.1h1l1-0.1l2.2-0.6l1.2-0.4l0.8-0.6l0.5-0.9l0.4-1l0.1-1l0.1-1.2
		l0.1-2.3l-0.1-1l0.1-1v-1.2l0.1-1.2v-3.4l-0.1-1l-0.1-1.2l0.1-0.9l-0.1-1.3l0.1-1v-1l-0.3-1.2l0.1-1l-0.1-1.2v-1l-0.1-1.2l0.1-1.2
		l-0.1-1v-1l-0.1-1v-1.3l-0.1-2.1v-1l-0.1-1.2v-1l-0.3-1v-1l-0.1-1.2l-0.3-2.1l0.1-1.3l-0.1-0.9l0.1-1.2v-1l0.1-1l0.3-1.2l0.3-1
		l0.4-1.7l1.3-0.8l2.1-0.4h2.3l1.2-0.1h1.2l1-0.1l1.2-0.1h1.2l2.2,0.1h2.2V45.7z M492.8,116.1l0.4,1l0.3,0.9l-0.4,0.9l-0.8,0.8
		l-1,0.1l-1,0.3l-1,0.1l-1.2,0.1l-1.3-0.1h-1.2l-1.2-0.1l-1,0.1l-2.2-0.1l-1.2,0.1l-1-0.1l-1.2,0.1l-1-0.1h-3.2l-1.2-0.1l-1.2,0.1
		L470,120h-7.6l-1-0.1l-1.2,0.1l-1-0.1H458l-2.3,0.1l-0.9-0.1l-2.1,0.3h-1.9l-2.1,0.1l-1.2-0.1l-1-0.3l-1.2-0.4l-1.3-1.6l-0.4-0.6
		l0.3-0.6l1,0.3l1.2,0.1l2.1-0.1h1.9l2.1-0.3l0.9,0.1l2.3-0.1h1.2l1,0.1l1.2-0.1l1,0.1h7.6l1.2,0.1l1.2-0.1l1.2,0.1h3.2l1,0.1
		l1.2-0.1l1,0.1l1.2-0.1l2.2,0.1l1-0.1l1.2,0.1h1.2l1.3,0.1l1.2-0.1l1-0.1l1-0.3l1-0.1l0.8-0.8l0.8-0.4h0.9L492.8,116.1z
		 M478.4,93.9l0.8-0.9l1-0.6l0.8-0.6l1-0.6l0.8-0.6l0.9-0.6l1-0.8l0.9-0.6l1-0.5l0.9-0.6l0.8-0.8l1.8-1.2l1-0.8l0.8-0.8l0.8-0.9
		l1.7-0.5l0.8,0.6v1.8l-0.5,1l-0.8,0.9l-0.8,0.8l-1,0.8l-1.8,1.2l-0.8,0.8l-0.9,0.6l-1,0.5l-0.9,0.6l-1,0.8l-0.9,0.6L484,94l-1,0.6
		l-0.8,0.6l-1,0.6l-0.8,0.9l-2.1,1l-1.3-1.2l-0.1-1.4L478.4,93.9z M479.8,61.8l1-0.5l0.8-0.6l1.6-1.6l1.7-1.3l1-0.9l0.8-0.8l0.8-0.6
		l0.9-0.8l1.6-1.4l0.3-0.5l1-0.5l1.3,0.6l0.4,0.9l-0.4,1.3l-0.6,1.2l-1.6,1.4l-0.9,0.8l-0.8,0.6l-0.8,0.8l-1,0.9l-1.7,1.3l-1.6,1.6
		l-0.8,0.6l-1,0.5l-0.8,0.8l-1.8,0.3l-0.9-1.4l0.8-1.8L479.8,61.8z"/>
</g>
<g>
	<g>
		<path class="st1" d="M218.2,43.1l-0.1,1.1l-0.1,0.4v0.5l-0.1,0.4l-0.1,0.5v0.4l-0.1,1l-0.1,0.5l-0.3,1l0.1,0.4l-0.1,0.5l-0.1,0.2
			l-0.1,0.5l-0.1,0.4l-0.1,0.5l-0.2,0.4l-0.3,0.7l-0.5,0.8l-0.5,0.7l-0.6,0.9l-1,1l-0.4,0.3l-0.4,0.4l-0.4,0.3l-0.5,0.3l-0.9,0.5
			l-0.9,0.4l-0.7,0.3v0.4l0.7,0.3l0.8,0.4l0.7,0.3l0.9,0.6l0.4,0.5l0.4,0.4l0.4,0.7l0.3,0.5l0.4,0.8l0.1,0.7l0.2,0.4l0.1,1l0.3,1
			l-0.1,1l0.1,0.7l-0.1,0.7v1l-0.1,0.5l-0.1,1.1l-0.2,1.1l-0.2,1l-0.1,0.5l-0.2,1l-0.1,0.4l-0.1,0.5l-0.1,0.4l-0.1,0.5l-1.2,2.4
			l-0.7,0.9l-0.4,0.8l-0.4,0.4l-0.5,0.4l-0.3,0.4l-0.6,0.4l-0.4,0.2l-0.4,0.4l-0.5,0.3l-0.4,0.3l-0.4,0.2l-0.5,0.2l-0.6,0.3L206,85
			l-0.6,0.2l-0.4,0.1l-0.7,0.1l-1,0.2l-0.4-0.1l-1.1,0.2l-1.1-0.1l-0.5-0.1l-0.5,0.1l-2,0.1l-1-0.1l-0.6-0.1h-1l-0.6,0.1h-0.2
			l-1.1,0.1l-1.2-0.1h-0.6l-1.2,0.1h-3l-0.4-0.1h-0.6l-1.1-0.1l-0.7-0.1l-0.5-0.4l0.1-0.6l0.1-0.7v-1.1l0.2-0.6l0.1-0.7l0.1-1
			l0.1-0.9l0.1-0.5l0.3-1l0.1-1l0.1-1l0.1-0.4l0.1-0.5l0.1-0.5l0.1-0.6l0.2-0.6l0.1-0.4l0.1-1.1l0.1-1.2l0.3-0.7l-0.1-0.7l0.2-1
			l0.2-0.6l0.1-0.6l0.1-0.4v-0.5l0.2-1l0.1-1l0.1-0.5l0.2-0.9v-0.4l0.1-0.3l0.1-0.7l0.3-1l0.1-1l0.1-0.4l0.3-1l0.1-0.6l0.3-1l0.1-1
			v-0.6l0.1-0.5l0.1-0.5l0.2-0.7l0.1-0.7l0.1-0.9l0.1-0.5l0.1-0.4l0.2-0.6l0.1-0.7l0.1-0.4V48l0.1-0.4l0.1-0.4L191,46l0.3-1l0.1-2.4
			l0.2-1.1l0.2-1l0.4-1.8l0.2-1v-0.6l0.1-0.5l0.1-1.1l0.1-0.7l0.2-0.4l0.7-0.6l1-0.1h1.8l0.4,0.1l0.8-0.1h1.5l3.6,0.1L206,34l1,0.1
			h2.2l0.8,0.1l0.7,0.1l1.1,0.3l0.9,0.2l0.7,0.4l0.7,0.3l0.8,0.7l1,1l0.7,0.6l0.3,0.4l0.2,0.4l0.3,0.9l0.4,1l0.1,0.6v0.5l0.1,0.6
			L218.2,43.1z M186.8,81.1l-0.4-0.4l-0.9,0.8l0.2,0.4L186.8,81.1z M193.6,67.8l-0.3-0.4l-0.6,0.4l-1.2,1.2l-1,1.2l-0.5,0.5
			l-0.4,0.6l-0.8,0.7l-1,0.8l-0.8,0.9l0.1,0.3l0.7-0.3l0.6-0.7l0.6-0.7l0.8-0.8l0.5-0.4l0.4-0.5l1.2-1.1l1.1-1.1L193.6,67.8z
			 M187.5,77.3l0.7-0.5l0.7-1l1.2-0.9l1-1l0.6-0.6l0.4-0.6l-0.3-0.2l-1.3,1l-1.8,1.5l-0.6,0.6l-0.5,0.6l-0.4,0.6L187.5,77.3z
			 M193.2,77.6l-0.9,0.8l-0.7,0.5l-0.7,0.6l-0.8,0.9l-1,0.7l-0.7,0.5l-1.1,1.3l1.2,0.4l0.5-0.4l0.6-1.3l0.9-1.3l1.3-1l0.6-0.7
			L193.2,77.6z M188.3,66.2l0.7-0.4l0.9-0.7l0.4-0.4l-0.5-0.3l-0.4,0.5l-0.6,0.8L188.3,66.2z M189,62.2l1-0.4l0.6-0.7l1.6-1.6
			l0.8-0.9l0.5-0.6l0.5-0.5l0.5-0.7l-0.7,0.4l-0.6,0.4l-0.6,0.5l-0.5,0.7l-0.9,1l-1.1,0.8l-0.6,0.7L189,62.2z M191.2,66.3l-1.2,1.3
			l-0.4,0.2l0.3,0.2l1-0.8l0.6-0.5l0.7-0.6l0.6-0.6l1-1.3l-0.2-0.1l-0.6,0.5l-0.7,0.5l-0.6,0.6L191.2,66.3z M193.2,81.2l-0.5-0.3
			l-0.6,0.6l-1.3,1.5l-0.7,0.7l0.1,0.1l0.8-0.7l1-0.9l0.7-0.6L193.2,81.2z M190.1,57.7l0.3,0.3l1.1-1.1l1.5-1.3l0.4-0.5l-0.5-0.3
			l-0.7,0.4l-0.6,0.6l-0.4,0.7L190.1,57.7z M190.5,54.1l0.2,0.3l0.9-0.6l1.8-1.8l1-1l0.8-1l0.7-0.4l1.2-1l1.5-1.8l0.4-0.7l0.7-0.8
			l-0.9,0.4l-0.7,0.4l-1.3,1.1l-1.2,1.3l-1,1.2l-0.7,0.8l-1,0.8l-1.2,1.2l-0.5,0.7L190.5,54.1z M192.2,62.8l-0.4-0.4l-0.5,0.7
			L192.2,62.8z M191.4,47.1l0.5-0.4l0.5-0.5l0.7-0.6l0.9-0.8l0.6-0.5l0.5-0.6l-0.2-0.2l-0.7,0.4l-0.5,0.7l-0.7,0.9l-1.3,1.2
			L191.4,47.1z M193.2,74.8l-0.4-0.4l-0.6,0.7l-0.8,1l0.1,0.5l0.3-0.4L193.2,74.8z M196,45.5l-0.7,0.6l-1.5,1.5l-0.7,0.4l-0.6,0.5
			l-0.5,0.6l-0.5,0.7l0.3,0.3l0.7-0.5l0.6-0.4l1-1.2l1.1-1l0.4-0.4l0.7-0.9l1-0.8l0.5-0.6l2.3-2.4l1.5-1.5l0.7-0.8l0.5-0.4l-0.4-0.4
			l-0.4,0.5l-1,1l-1.3,1.3l-1.3,1.2l-1.3,1.3l-0.6,0.7L196,45.5z M193.2,38.6l0.4-0.2l0.7-0.7l-0.3-0.1l-0.4,0.7L193.2,38.6z
			 M195.1,82.5l-0.4-0.4l-0.5,0.6l-0.5,0.7l0.2,0.1l0.7-0.4L195.1,82.5z M194.7,40l0.3,0.7l0.4-0.6L194.7,40z M195.2,52.5l0.4,0.4
			l0.6-0.4l0.5-0.5l0.5-0.6l0.4-0.7l-0.4-0.3l-0.6,0.4l-0.6,0.5l-0.5,0.5L195.2,52.5z M197.2,54.7l0.5-0.6l0.4-0.7l0.7-1l-0.3-0.1
			l-0.8,0.7l-1.2,1l-0.6,0.7l-0.4,0.7l0.4,0.3l0.6-0.4L197.2,54.7z M195.6,76.2l1.2,0.1l0.7-0.2l1.8,0.2h1.4l0.5-0.2h0.5l0.5-0.2
			l0.7-0.5l0.5-0.4l0.4-0.7l0.1-0.6l0.4-0.8l0.1-0.5l0.1-0.6l0.4-1l0.1-1.3l-0.1-1.3l0.1-1l-0.7-1.8l-0.8-0.7l-1.4-0.5l-0.7-0.1
			l-0.6-0.1h-1l-0.8-0.1h-1l-0.2,0.7l-0.1,1.3l-0.1,0.6l-0.1,0.3l-0.1,1.1l-0.1,0.5v0.5l-0.1,0.4l-0.1,0.6l-0.1,1l-0.1,0.5l-0.2,1.1
			V73l-0.1,1l-0.1,0.6l-0.1,0.6L195.6,76.2z M196.8,60.7l-0.6,0.4l-0.6,0.5L196,62l0.7-0.4l0.5-0.5L196.8,60.7z M199.4,81.6l0.5-0.6
			l0.5-0.7l0.5-0.7l0.6-0.3l0.6-0.8l0.8-0.6l-0.4-0.3l-0.6,0.7l-0.7,0.5l-0.8,0.8l-1,0.9l-1.2,1.2l-0.6,0.5l-0.7,0.6l-1.1,1.3
			l0.6,0.3l0.6-0.5L199.4,81.6z M196.5,38.2l0.4,0.4l0.7-0.5l-0.4-0.4L196.5,38.2z M196.5,41.9l0.9-0.4l0.4-0.9l-0.9,0.4L196.5,41.9
			z M198.3,39.8l-0.4,0.7l0.7-0.3l0.4-0.8L198.3,39.8z M197.9,56.7l0.8-0.4l-0.4-0.4L197.9,56.7z M198.5,59l0.3,0.4l0.7-0.4l0.5-0.7
			l1.1-1l0.5-0.5l0.3-0.7l-0.7,0.4l-0.6,0.4l-1,1.2l-0.7,0.4L198.5,59z M199,35.8l0.2,0.4l0.6-0.5l-0.3-0.3L199,35.8z M199.9,38.2
			l-0.5,0.9l1-0.5L199.9,38.2z M213,70.9l-0.1-0.1l-0.8,0.6l-0.5,0.5l-2.1,1.8l-0.5,0.6l-1.2,1.2l-0.5,0.6l-3.5,3.5l-1,1.2l-1.7,1.5
			l-0.4,0.6l-0.8,0.9l-0.5,0.5l0.1,0.1l0.6-0.7l1.5-1.1L202,82l1.1-1l1.5-1l1.1-1.3l1.3-1.2l1.6-1.6l1.6-1.7l1-1l0.8-0.9l0.4-0.5
			L213,70.9z M202,42.4l-0.6,0.1V43l-0.2,0.7l-0.1,0.7l-0.1,0.5l-0.2,0.9v0.5l-0.2,1l-0.1,0.5l-0.1,0.4l-0.5,3.6l-0.1,0.6l-0.1,0.7
			v0.4h1l0.9,0.1l1-0.1l0.9-0.1l0.6-0.4l0.8-0.5l0.9-0.7l0.4-0.7l0.6-0.7l0.4-1l0.2-0.9l0.1-0.4l0.1-0.6l0.3-0.7l-0.1-0.8l-0.1-0.5
			l-0.1-0.9l-0.4-0.9l-0.2-0.4l-0.6-0.5l-0.4-0.1l-0.7-0.1l-1.3-0.1L202,42.4L202,42.4z M215.1,49.5l-0.4-0.4l-0.5,0.4l-1.2,1.1
			l-1,1.3l-2.9,2.6l-1.2,1.3l-0.6,0.7l-1.3,1.2l-0.5,0.5l-0.4,0.7l-1.1,1l-0.7,0.4l-0.5,0.5l-0.4,0.7l-1,1l0.3,0.4l1.1-1.1l0.6-0.4
			l0.5-0.5l0.4-0.6l0.8-0.8l0.9-0.6l2.2-2.3l1.1-1.1l0.6-0.5l1.1-1l1.1-1.1l1-1.1l1.5-1.5L215.1,49.5z M202.9,55.4l0.7-0.6l0.6-1
			l-0.1-0.1l-0.8,0.7l-0.7,0.5l-0.4,0.9L202.9,55.4z M202.6,58.6l0.9-0.7l1.2-1.3l-0.1-0.3l-0.7,0.4l-0.6,0.4l-0.5,0.5L202.6,58.6z
			 M208.6,59l-0.2-0.1l-0.6,0.5l-0.6,0.6l-0.6,0.5l-0.5,0.6l-0.7,0.8l-0.9,0.6l-0.5,0.7l0.3,0.2l0.7-0.6l1-1.2l0.6-0.4l0.6-0.5
			l0.5-0.5l0.5-0.6L208.6,59z M204.6,36.8l0.3,0.3l0.7-0.8l-0.4-0.2L204.6,36.8z M212.9,74.3l-0.2-0.4l-0.6,0.5l-0.4,0.7l-1.2,1
			l-0.6,0.7l-1.2,1.2l-0.7,0.6l-0.9,1l-1.6,1.4l-0.6,0.6l0.5,0.3l0.7-0.5l0.7-0.6l0.6-0.6l1.1-1.3l0.7-0.5l1.1-1.3l0.6-0.6l1.2-1
			l0.5-0.6L212.9,74.3z M205.8,38.9l-0.3,0.5l-0.5,0.3l0.2,0.2l0.3-0.5l0.5-0.3L205.8,38.9z M207.1,64.2l0.6-0.6l0.5-0.7l-0.4-0.3
			l-0.7,0.5l-0.5,0.7l-1.1,1.2l-0.5,0.8l0.7-0.4L207.1,64.2z M212.3,67.8l-0.7,0.4l-0.5,0.6l-0.4,0.7l-1.2,1l-1.1,1.2l-1,1.2
			l-0.6,0.6l-0.5,0.6l-0.6,0.6l-0.4,0.7l0.5,0.1l0.8-0.9l2.4-2.4l0.5-0.6l0.5-0.7l1.1-1l0.7-0.4l1-1.2l0.4-1L212.3,67.8z
			 M216.9,44.6l-0.5-0.5l-0.5,0.4l-1.6,1.6l-0.6,0.5l-0.6,0.6l-0.5,0.6l-1.2,1.2l-1.1,1.2l-0.6,0.6l-0.9,1.3l-0.7,0.4l-0.6,0.5
			l-0.4,0.6l-1.3,1.2l0.4,0.4l1.4-1.1l1.2-1.3l0.6-0.9l0.7-0.4l1-1.3l1.3-1.2l0.7-0.4l0.6-0.5l2.2-2.2L216.9,44.6z M207.1,69.8
			l-0.7,0.8l-0.2,0.4l0.8-0.3l1.1-1l0.5-0.7l0.6-0.6l1.1-1l0.5-0.5l0.4-0.6l1-0.8l0.4-0.5l-0.4-0.4l-0.4,0.5l-0.6,0.7l-0.8,0.7
			L207.1,69.8z M206.3,67.6l0.4,0.2l0.6-0.5l1.2-1.2l1-1.3l-0.2-0.2l-0.7,0.5l-0.7,0.6l-0.6,0.6L206.3,67.6z M206.9,37.9l0.9-0.4
			l-0.4-0.4L206.9,37.9z M208.2,39.4l-0.8,1l0.3,0.2l1.3-0.9l0.7-0.4l1.1-1.3l0.6-0.4l1.1-1.2l-0.3-0.9l-0.9,0.7l-0.5,0.5l-0.6,0.5
			l-0.5,0.5l-1,1L208.2,39.4z M207.8,49.9l-0.1,0.4L208,50L207.8,49.9z M214.1,40.3l-1,0.7l-1.2,1.1l-0.4,0.5l-0.5,0.5l-1.1,1
			l-0.5,0.6l-0.4,0.7l0.3,0.3l0.7-0.4l0.6-0.4l0.6-0.5l0.5-0.6l0.5-0.5l1-1.2l0.6-0.5l0.7-1L214.1,40.3z M212.5,38.1l-1.1,1.1
			l-1.7,1.5l-0.5,0.7l0.2,1l0.9-0.6l1.8-1.8l0.5-0.6l0.5-0.7l0.4-0.7l-0.4-0.4L212.5,38.1z M210.1,80.4l-0.3-0.3l-0.6,0.6l0.4,0.3
			L210.1,80.4z M214.4,42.9l-1.3,1.2l-0.5,0.7l-0.6,0.6l-1.3,1l-0.5,0.6l-0.5,0.7l-0.4,0.7l0.4,0.5l0.7-0.4l2.6-2.9l1.1-1.1l0.6-0.5
			l1.1-1.1l0.5-0.7l-0.4-0.3l-0.7,0.6L214.4,42.9z M213.8,54.1l-0.2-0.4l-0.7,0.5l-0.6,0.6l-0.5,0.6l-0.5,0.7l-0.5,0.7l0.7-0.4
			l0.6-0.6l0.6-0.5L213.8,54.1z M211,62.8l0.2,0.2l0.3-0.4l-0.1-0.1L211,62.8z"/>
		<path class="st1" d="M257.8,35.8l-0.4,1l-0.1,1.1l-0.1,0.6l-0.1,1l-0.1,0.6l-0.3,1l-0.1,0.5l-0.1,0.6l-0.1,0.5l-0.3,1l0.1,0.4
			l-0.3,0.9v0.4l-0.2,0.8l-0.1,0.7l-0.2,0.7l-0.1,0.7l-0.2,0.9v0.5l-0.1,0.5l-0.1,0.4l-0.1,0.5l0.1,0.5l-0.5,1.6l-0.2,1.1v0.4
			l-0.2,1l-0.1,0.4l-0.1,1l-0.1,1l-0.3,1V60l-0.1,1l-0.3,0.6l-0.1,1l-0.1,0.9l-0.2,1l-0.3,1l-0.1,0.5l-0.2,1v0.1l-0.3,0.9l-0.2,1
			v0.4l-0.1,0.5l-0.2,0.8l-0.1,0.7v0.5l-0.1,0.4l-0.1,0.5l-0.3,0.9l-0.3,1l-0.2,1.3l-0.4,0.4l-0.2,1l-0.5,1l-0.3,0.4l-0.4,1
			l-0.3,0.5l-0.4,0.5l-0.3,0.7l-0.4,0.7l-0.7,0.5l-0.6,0.7l-0.7,0.4l-0.6,0.4l-0.9,0.4l-0.4,0.3l-1.2,0.4l-0.4,0.1l-0.9,0.2
			l-0.7,0.1l-0.4,0.1l-1.5,0.1h-1.7l-1.1,0.1h-1.5l-3-0.4l-0.5-0.1l-0.3-0.1L228,85l-0.5-0.2l-0.4-0.2l-1.5-0.9l-0.7-0.7l-0.4-0.5
			L224,82l-0.4-0.6l-0.1-0.2L223,80l-0.6-1l-0.3-1.2l-0.1-1l-0.3-2.5l0.1-0.4l0.1-2.5l0.1-0.7l0.3-2l0.1-1l0.1-1.1l0.1-0.9l0.1-0.7
			v-1l0.3-0.9l0.1-0.5l0.1-0.4l0.2-0.9l-0.1-0.5l0.1-0.5l0.2-0.9l0.1-0.5v-1l0.3-1l0.1-1l0.2-1l0.3-1v-0.6l0.1-1l0.2-0.4l0.2-2.1
			l0.1-0.4l0.1-1v-0.5l0.1-0.4l0.4-1L226,46l0.1-0.6l0.2-1l0.1-0.6v-0.6l0.2-1v-0.5l0.1-0.4l0.2-2.1l0.4-1l0.1-0.4l0.1-0.7l0.1-1
			l0.3-1l0.1-0.6l0.4-0.1l1.3-0.1h0.4l0.7-0.1l3.1,0.1l1.8-0.1l0.7,0.1l1.2,0.1l0.7,0.5l0.1,1.1v1l-0.1,0.4l-0.1,0.5l0.1,1l-0.1,0.5
			l-0.1,0.7l-0.1,0.6l-0.1,0.5l-0.1,0.4v0.5l-0.3,0.9l-0.1,1l-0.1,0.6v0.7l-0.1,0.5l-0.4,1l-0.1,0.6l-0.2,1.1l-0.1,1.1L236,50
			l-0.2,0.5l-0.1,0.7l-0.1,0.5l-0.1,0.6v0.5l-0.4,1l-0.1,0.4l0.1,1l-0.3,0.7l-0.1,0.7l-0.1,0.6l-0.1,0.5l-0.1,0.4l-0.2,0.9v1l-0.3,1
			l-0.1,0.9l-0.4,2.7l-0.2,1.5l-0.1,1l-0.2,1l-0.2,1.8l-0.1,0.7l-0.1,0.4l-0.1,0.5l0.1,1.2v0.8l0.1,0.9l0.8,1l0.8,0.2l1.5,0.2
			l1.7-0.2l0.7-0.6l0.4-0.6l0.2-0.4l0.5-1.2l0.4-0.7l0.1-0.7l0.1-0.4l0.4-1.5l0.2-1l0.1-0.5l0.1-0.7l0.1-0.4l0.1-0.7l0.1-0.7L241,65
			l0.1-0.6l0.1-0.5l0.1-1l0.1-0.7l0.3-1.3l0.1-0.9l0.1-0.5l0.4-1v-0.6l0.1-1l0.2-1l0.1-0.9l0.3-1l0.1-0.6l0.3-1v-0.6l0.1-1l0.1-0.4
			v-1l0.4-0.7l-0.1-0.8l0.3-1l0.1-0.6l0.1-1l0.1-0.6l0.2-1l0.1-1l0.1-1l-0.1-0.5L246,40l0.1-0.4l0.1-0.9l0.1-0.4l0.2-1l0.2-1l0.2-1
			l0.1-0.6l0.2-0.5l2.2-0.1h0.5l0.5,0.1l2.1-0.1h0.5l0.5,0.1h0.6l0.5-0.1l0.7,0.1l0.5-0.1l0.7-0.1l0.6,0.1l0.6,0.6L257.8,35.8z
			 M223.1,71.7h0.7l1.3-1l1.1-1.1l0.5-0.6l1.8-1.7l0.6-0.5l0.5-0.7l0.4-0.7l1.2-1.1l0.6-0.7l0.5-0.7l-0.1-0.2l-0.7,0.5l-1.6,1.6
			l-0.5,0.4l-1,1l-1.7,1.6l-0.5,0.6l-0.6,0.5l-1.5,1.8L223.1,71.7z M224.1,74.8l5.1-5.1l1.7-1.8l1.1-1.2l0.4-0.6l-0.7,0.3l-1.2,1.1
			l-0.6,0.5l-0.7,0.6l-2.4,2.4l-2.4,2.3L224,74l-0.7,1L224.1,74.8z M223.4,68.7l0.3-0.1l0.8-0.7l0.6-0.6l0.6-0.5l0.5-0.6l0.6-0.6
			l1-1.2l0.6-0.6l2.4-2.1l0.5-0.7l1-1.1l0.4-0.5l0.6-0.8l-0.8,0.4l-0.6,0.5l-1,1.1l-0.7,0.5l-0.6,0.7l-0.5,0.7l-1.8,1.6l-2.7,2.7
			l-1,1.1L223.4,68.7z M225.8,76.5l0.6-0.5l0.6-0.6l0.5-0.6l1.2-1.2l0.5-0.6l0.6-0.7l0.5-0.6l1-1.3l-0.2-0.1l-0.6,0.4l-0.6,0.5
			l-1.6,1.6l-0.4,0.6l-1,1.1l-0.6,0.6l-0.6,0.5l-1,1l-0.5,0.6l-0.4,0.7l0.3,0.2l0.7-0.5L225.8,76.5z M223.9,64.9l0.6-0.4l1-0.7
			l1.7-1.7l1.5-1.6l0.5-0.6l1.1-1l1.1-1.1l0.9-1l-0.7-0.1l-4.5,4.5l-1.2,1l-1,1.2l-0.7,0.9L223.9,64.9z M224.6,60.6l0.4,0.1l0.6-0.4
			l0.6-0.5l0.6-0.6l1-1.2l1.3-1l0.5-0.6l1.2-1.3l0.7-0.6l0.5-0.6l0.7-1l-0.2-0.1l-0.7,0.4l-1.1,1.1l-0.5,0.6l-1.6,1.6l-1,1l-0.6,0.6
			l-1.1,1.3L224.6,60.6z M225.1,57.2l0.4-0.4l-0.1-0.1L225.1,57.2z M225.6,79.6l0.7-0.4l1.8-1.5l0.5-0.6l1.1-1.1l0.5-0.6l0.4-0.6
			l0.5-0.7l0.4-0.7l-0.2-0.1l-1.2,1l-0.5,0.6l-0.6,0.5l-1.6,1.6l-1.5,1.8l-0.4,0.6L225.6,79.6z M228.5,80.4l1.7-1.9l0.7-0.6l0.6-0.6
			l0.5-0.7l0.5-0.7l-0.3-0.2l-0.7,0.5l-0.6,0.6l-1.3,1.2l-1,1.2l-0.6,0.4l-0.6,0.5l-0.5,0.5l-0.4,0.6l-0.4,0.7l0.4,0.2L228.5,80.4z
			 M226.4,55.7l0.8-0.4L227,55L226.4,55.7z M227.1,48.5l0.9-0.3l0.4-0.4l-0.4-0.3l-0.5,0.4L227.1,48.5z M227.5,41.5l0.4,0.4l0.5-0.8
			L227.5,41.5z M228.6,43.4l-1,1.3l0.3,0.3l1.2-1l1.2-1.2l0.5-0.6l0.6-0.9l0.6-0.5l1.1-0.8l0.7-0.6l0.5-0.7l-0.3-0.3l-0.8,0.5
			l-0.6,0.7l-0.8,1l-0.7,0.7l-0.9,0.7L228.6,43.4z M231.4,80.5l0.5-0.6l1.3-1.3l0.8-0.7l0.6-0.6l0.5-0.7l-0.3-0.2l-0.7,0.4l-0.6,0.6
			l-0.7,1l-0.9,0.7l-1.8,1.8l-0.6,0.5l-0.6,0.6l-0.9,1l0.4,0.4L231.4,80.5z M229.7,52.2l-0.7,0.6l-0.5,0.7l-0.1,0.7l0.8-0.7l0.7-0.6
			l1-1.1l1-1l0.6-0.5l0.6-0.6l0.4-0.7l-0.4-0.2l-0.6,0.5l-0.5,0.6l-0.5,0.7l-1.1,1.2L229.7,52.2z M229.3,39.8l0.3,0.2l0.6-0.6l1-0.9
			l0.5-0.6l1.6-1.6l0.9-0.8h-0.8l-1.3,1.1l-0.4,0.5l-1.7,1.7L229.3,39.8z M231.3,44.9l0.5-0.7l1.2-1.1l-0.4-0.3l-1.1,1.1l-0.7,0.5
			l-0.6,0.6l-0.5,0.7L230,46l0.7-0.5L231.3,44.9z M230.9,47.7l-0.6,0.6l-0.5,0.9l0.9-0.4l0.6-0.7L230.9,47.7z M250.5,64.3l-0.4-0.1
			l-0.5,0.7l-1,0.7l-0.6,0.6l-0.6,0.5l-0.4,0.7l-1.2,1l-0.6,0.7l-0.9,0.8l-1.1,1l-0.6,0.7l-0.5,0.6l-1.5,1.6l-0.9,1l-0.6,0.5
			l-1.2,1.2l-0.5,0.6l-1.1,1l-1,1.1l-1.7,1.6l-0.6,0.5l-0.5,0.6l-0.5,0.5l-1,1l-0.7,0.8l0.2,0.2l1.1-0.7l0.7-0.5l1.5-1.8l0.5-0.5
			l1.1-1l0.5-0.5l0.9-1l0.8-0.8l0.5-0.4l1-1.1l0.5-0.4l0.5-0.5l1-1.1l0.7-0.5l0.6-0.6l0.6-0.7l1.2-1l0.5-0.5l1-1.2l0.6-0.5l1-1.3
			L248,67l0.7-0.6l0.6-0.6l0.6-1L250.5,64.3z M235.4,43.8l-0.2-0.1l-0.7,0.5l-0.7,0.6l-0.6,0.6l-0.5,0.7l0.3,0.3l0.7-0.5l0.6-0.6
			l0.6-0.7L235.4,43.8z M235.6,82.6l0.7-0.6l2.9-2.9l0.7-0.6l1.1-1.3l1.3-1.2l0.5-0.7l1.2-1.2l0.7-0.5l0.7-0.6l0.6-0.6l1-1.3l0.4-1
			l-0.8,0.6l-2.2,2.2l-0.9,1l-6.3,6.3l-1.7,1.8l-2.1,2.1h0.5l0.7-0.5L235.6,82.6z M233.8,55.2l-0.2-0.2l-0.2,0.4L233.8,55.2z
			 M234.5,51.2l-0.4-0.2l-0.6,0.7l0.2,0.2L234.5,51.2z M234.3,41l-0.2,0.7l0.7-0.4l0.6-0.5l0.4-0.6l-0.4-0.3l-0.5,0.4L234.3,41z
			 M235.6,36.8l1-0.5l-0.3-0.2L235.6,36.8z M249,72.6l-0.2-0.3l-0.7,0.4l-0.7,0.5l-1.2,1.2l-0.6,0.7l-1.1,1l-1,1.1l-6.3,6.3
			l-0.4,0.5l-0.4,0.6l0.2,0.2l0.6-0.4l0.5-0.4l1-1.1l0.6-0.5l0.6-0.6l1.1-1l3.4-3.4l0.7-1l1-0.8l0.7-0.5l1.2-1.2L249,72.6z
			 M246.8,77.3l-1.1,0.9l-0.6,0.5l-0.5,0.6l-0.6,0.5l-1.1,1.1l-0.6,0.5l-0.6,0.6l-0.5,0.6l-1.2,1.3l-0.1,0.7l0.8-0.8l0.6-0.5
			l1.6-1.6l0.6-0.5l0.5-0.5l0.6-0.5l1-1.1l1-1.3L246.8,77.3z M241.5,69.6l0.3,0.4l1.3-1l0.6-0.5l0.6-0.6l0.5-0.6l0.4-0.7l-0.2-0.3
			l-0.7,0.4l-0.6,0.4l-1.8,1.8L241.5,69.6z M242.9,64.8l0.4,0.4l0.7-0.6l2.3-2.3l0.5-0.4l0.9-1l-0.4-0.4L246,62l-2.3,2.2L242.9,64.8
			z M243.2,61.7l0.1,0.1l0.8-0.9l0.6-0.4l1.2-1l0.5-0.6l0.4-0.7l0.6-0.7l-0.8,0.5l-1.2,1l-1.5,1.8L243.2,61.7z M243.9,57.9l0.8-0.6
			l1.7-1.5l-0.4-0.4l-1.1,1l-0.5,0.5L243.9,57.9L243.9,57.9z M247.6,63.5l-0.6,0.7l-0.5,0.6l0.3,0.2l1.2-1l1.2-1.2l0.5-0.7l0.5-0.6
			l-0.1-0.2l-0.7,0.5l-0.6,0.5L247.6,63.5z M246.8,51.3l0.4,0.4l0.7-1.1l-0.1-0.1L246.8,51.3z M247.7,54.3l0.2-0.4l-0.5,0.1
			L247.7,54.3z M252.4,52.7l-0.4-0.1l-0.7,0.6l-0.7,0.4l-0.9,1l-0.4,0.6l-1.1,1l-0.4,1l1-0.4l1-1.3l0.7-0.4l0.6-0.5l0.6-0.6l0.4-0.6
			L252.4,52.7z M249.8,68.3l-0.2-0.3l-0.6,0.5l-0.5,0.7l0.3,0.3l0.6-0.5L249.8,68.3z M249.1,59.5l0.7-1l-0.7,0.3l-0.5,0.4
			L249.1,59.5z M248.7,36.5l0.1,0.3l0.6-0.4l-0.2-0.3L248.7,36.5z M249.6,42.5l0.4-0.4l1.3-1.2l1-0.7l0.4-0.7l-0.3-0.2l-0.6,0.4
			l-0.7,1l-0.5,0.6L250,42L249.6,42.5z M252.1,36.3l-0.4,0.8l0.7-0.5L252.1,36.3z M255.5,39.9l-0.3-0.3l-1,1l-0.8,0.8l-1,0.8
			l-0.7,0.7l0.2,0.6l1.8-1.8l0.8-0.9L255.5,39.9z"/>
		<path class="st1" d="M290.7,44.6v0.6l-0.2,1l-0.1,0.5l0.1,1.1v0.5l-0.2,1.2l-0.1,1.2l-0.2,0.7l-0.3,0.9l-0.1,0.5l-0.1,0.4
			l-0.2,0.5l-0.4,0.9l-0.7,1l-0.2,0.5l-0.3,0.7l-0.6,1l-0.2,0.4l-0.8,1l-0.4,0.4l-1,1.1l-1.5,1l-1,0.5l-0.5,0.1V63l0.2,0.6l0.4,1.1
			v0.7l0.1,1l0.3,0.4l0.1,0.6l0.1,1l0.2,0.4l0.2,1l0.1,0.4l0.1,1l0.2,0.5l0.1,0.6l0.3,1v0.4l0.4,1.1l0.1,1l0.8,2.7l0.1,1l0.5,1.3
			l0.1,0.9l0.1,0.5l0.1,0.7l0.5,1.4l-0.2,1l-0.4,0.1l-0.8,0.1h-1l-1.5,0.2l-1.9,0.2h-1l-0.8,0.1h-0.6l-0.7,0.1l-0.4-0.1l-0.5-1
			l-0.1-0.4l-0.2-0.9l-0.1-0.4l-0.2-0.8l-0.4-1.1v-0.6l-0.2-0.6l-0.1-0.2l-0.1-1l-0.2-0.5V78l-0.2-0.4l-0.1-0.5l-0.2-0.8l-0.3-0.7
			v-0.9l-0.4-1.3l-0.1-0.5l-0.3-0.9l-0.1-0.5l-0.1-1l-0.3-1l-0.1-1l-0.1-0.4l-0.2-1l-0.1-0.7l-0.3-0.6l-0.1-0.6l-0.3-0.6l-0.3-0.3
			l-0.5-0.1l-0.1,0.3l-0.1,0.4l-0.2,1l-0.1,0.6l-0.2,1.5v1.3l-0.4,1l-0.1,1v0.4l-0.1,1l-0.3,0.6V75l-0.1,0.6l-0.3,1.5l-0.1,0.6
			l-0.1,0.4v0.6l-0.2,1l0.1,0.4l-0.1,0.5V81l-0.1,1l-0.1,0.5v0.4l-0.1,0.5l-0.1,0.9l-0.2,0.5l-0.2,0.7l-0.7-0.1l-0.7,0.1l-1.1,0.1
			l-0.6,0.1l-2.7-0.1h-1l-2.3-0.1l-0.7-0.1l-0.1-0.4v-0.7l0.2-0.7l0.1-0.7l0.1-0.8v-0.5l0.1-0.4v-0.5l0.2-0.5v-0.4l0.1-0.5l0.2-1
			v-0.5l0.2-0.6l-0.1-0.5l0.2-0.6l0.1-1l0.1-0.6l0.1-0.5l-0.1-0.6l0.3-0.6v-1.1l0.4-1.3v-0.7l0.1-0.7l0.1-1.1V67l0.3-1l0.1-0.5
			l0.1-0.6v-0.7l0.4-0.5l0.1-0.4l-0.1-0.4L261,62l0.1-0.5l0.2-0.4v-0.4l0.1-0.5l0.1-0.8l0.1-0.4l0.1-1l0.1-1v-0.6l0.4-1.5v-0.5
			l0.1-0.4l0.1-0.5l0.1-1l0.1-0.4v-0.5l0.1-0.4l0.3-0.9l0.1-1l0.1-0.4l0.2-1l0.2-1.2l0.2-1l0.1-0.4v-0.4l0.1-1V43l0.1-0.5l0.2-0.9
			l0.2-1.2l0.3-2.1l0.1-0.6l0.1-0.5v-0.6l0.3-0.6l-0.1-0.8l0.3-0.4l0.5-0.6l0.7-0.1h1l4.4,0.1h3.2l0.5-0.1l0.7-0.1l0.6,0.1l1.1,0.1
			h0.7l1,0.1l1.1,0.1l0.8,0.1h1.2l0.6,0.1l0.8,0.4l0.7,0.3l0.5,0.1l0.7,0.4l0.4,0.2l0.4,0.2l0.9,0.5l0.3,0.3l0.4,0.4l0.3,0.4
			l0.5,0.9l0.5,1l0.2,1.2l0.1,1.4v0.5L290.7,44.6z M267.9,73.7l-0.9,0.8l-0.7,0.6l-0.6,0.6l-0.6,0.5l-2.9,2.9l-1,1.1l-0.8,0.9
			l-0.7,0.6l-0.4,1l0.8-0.5l0.7-0.6l1-1l1.1-1l0.5-0.6l1-1l0.5-0.6l1.6-1.6l0.6-0.7l0.5-0.7L267.9,73.7z M268.9,70.1h-0.7l-0.6,0.5
			l-0.7,0.6l-0.6,0.6l-0.5,0.6l-1.2,1.2l-1.1,1.2l-0.6,0.5l-0.6,0.6l-2.1,2.4l-0.4,0.7l0.2,0l0.5-0.6l0.6-0.5l3.5-3.3l1.1-1.2
			l0.6-0.5l1.2-1.2l0.5-0.6L268.9,70.1z M268.9,67l-0.1-0.7L268,67l-1.2,1l-0.6,0.6l-0.6,0.5l-0.5,0.6l-0.6,0.6l-0.6,0.5l-0.5,0.6
			l-0.6,0.6l-0.5,0.6l-1.6,1.6l-0.4,0.7l-0.4,0.7l0.8-0.4l0.7-0.6L263,73l0.5-0.6l1.1-1l1.3-1l1.2-1.2l0.5-0.7l1.1-1.2L268.9,67z
			 M273.2,59.7l1.6-1.8l0.6-0.6l0.5-0.9l-0.7,0.2l-2.3,2.2l-2.2,2.3l-2.3,2.3l-2.2,2.3l-2.7,2.9l-2.7,2.9l0.7-0.5l1.2-1l0.6-0.6
			l0.6-0.5l1.2-1.2l3.5-3.4l0.6-0.6l0.5-0.6l0.6-0.5l0.6-0.6l1.3-1.1L273.2,59.7z M261.6,67l0.1,0.6l1-1l0.6-0.5l0.5-0.6l1.1-1.2
			l1.3-1.1l1.2-1.2l0.6-0.7l0.6-0.6l0.6-0.7l0.6-0.6l0.9-1l1.5-1.4l0.5-0.7l-0.3-0.3l-0.7,0.6l-0.5,0.7l-1.8,1.5l-0.6,0.5l-0.5,0.5
			l-0.6,0.5l-1.1,1l-0.5,0.6l-0.5,0.5l-0.5,0.6l-0.6,0.5l-1,1.1l-1,1.1L261.6,67z M261.7,64.1l1.1-0.7l4.1-4.1l0.6-0.7l1.2-1.2
			l1.6-1.8l0.7-1l0.6-0.4l-0.6,0.4l-1,0.5l-1.1,1.2l-0.6,0.7l-0.5,0.6l-0.6,0.6l-1.3,1.2l-0.6,0.6l-0.6,0.5l-1.8,1.8l-0.9,1
			l-0.3,0.6L261.7,64.1z M262.2,59.9l0.4,0.4l0.4-0.6l1-1l0.5-0.7l1-0.5l0.6-0.7l-0.4-0.4L265,57l-0.4,1l-0.7,0.4l-1,0.9L262.2,59.9
			z M267.2,78.2L267,78l-1.3,1l-0.6,0.5l-1.2,1.2l-0.6,0.7l-0.5,0.6l-0.4,0.7l0.4,0.1l0.6-0.5l0.7-0.5l0.6-0.5l0.5-0.6l0.6-0.6
			l0.5-0.7l0.5-0.6L267.2,78.2z M266.8,81.7l-0.4,0.1l-0.9,0.4l-0.5,0.6l-0.4,0.6l-0.4,0.7l0.3,0.4L265,84l1-1l0.5-0.6L266.8,81.7z
			 M264.4,51.3l0.3,0.4l0.7-0.8l0.9-0.9l0.6-0.5l0.7-0.5l0.6-0.6l0.7-0.5l0.6-0.6l0.5-0.6l1-1.3l0.1-0.6l-0.7,0.7l-0.5,0.6l-2.8,2.6
			l-0.6,0.6l-0.7,0.9l-0.4,0.6L264.4,51.3z M266.1,46.6l0.3,0.2l0.8-0.7l0.5-0.6l0.5-0.7L269,44l0.2-0.4l0.8-0.4l0.4-0.6l-0.3-0.2
			l-0.6,0.5l-0.4,0.7l-0.5,0.1l-0.9,0.7l-1,1.3L266.1,46.6z M266.5,42.9l0.8-0.4l0.6-0.6l0.6-0.5l0.5-0.7l-0.2-0.1l-0.6,0.5
			l-0.6,0.6l-0.5,0.6L266.5,42.9z M267.5,52.3l0.6-0.5l0.5-0.6l0.4-0.7l0.5-0.8l-0.8,0.4l-0.7,0.4l-0.6,0.5l-0.5,0.6l-0.4,0.7
			l0.3,0.3L267.5,52.3z M267.2,55.5L268,55l0.6-0.4l0.9-1.2l0.5-0.5l1-1.2l0.6-0.7l-0.8,0.4l-1.2,1.1l-1.2,1.2l-1.2,1.1L267.2,55.5
			L267.2,55.5z M267.8,38.2l0.3,0.4l0.7-0.5l0.4-0.6l0.5-0.7L269,37l-0.7,0.5L267.8,38.2z M270.5,38.5l0.3,0.7l0.7-0.5l0.7-1
			l-0.3-0.2l-0.8,0.7L270.5,38.5z M271.9,40.5l-0.4,0.5l0.4,0.4l0.5-0.4l2.1-2.2l0.6-0.4l0.6-0.5l0.4-0.7l0.7-0.9l-0.3-0.1l-1.4,1
			l-0.5,0.6l-0.4,0.7l-1.2,1L271.9,40.5z M273.6,62.5l0.6-0.7l1.1-1.2l0.5-0.6l1.3-1.2l0.6-0.6l0.7-0.6l0.9-1l-0.7,0.1l-1.8,1.5
			l-1.2,1.2L275,60l-0.6,0.6l-0.5,0.6l-0.6,0.7l-1,1.2l0.2,0.5L273.6,62.5z M280,44.2l-0.4-0.7l-0.5-0.5l-0.7-0.4l-1.6-0.2l-1.8-0.1
			l-0.7,0.2l-0.2,0.8l-0.2,0.5l-0.1,1.2l-0.1,1.1l-0.1,1l-0.1,0.6l-0.2,1.2v0.5l-0.1,1.1l-0.2,0.7l0.1,0.7l-0.1,0.7l-0.2,1.2
			l-0.1,0.5l0.1,0.5l-0.1,0.6l1.3,0.1h1.2l0.9-0.2l0.4-0.3l0.7-0.4l0.5-0.3l0.5-0.6l0.3-0.4l0.5-0.4l0.4-1l0.1-0.6l0.1-0.4l0.5-1
			v-0.6l0.2-0.6l0.1-1.2l-0.1-1.6L280,44.2z M273.8,65.1l1.3-1l1.2-1l0.6-0.6l0.5-0.6l0.7-1l0.1-0.4l-0.4,0.1l-0.8,0.9l-0.7,0.4
			l-0.6,0.5l-1.2,1.2l-0.5,0.6l-0.4,0.7L273.8,65.1z M283.9,58.3l-0.2-0.3l-0.7,0.4l-0.5,0.5l-0.4,0.6l-1,1l-0.7,0.8l-1,0.7l-1.1,1
			l-0.6,0.4l-0.4,0.6l-1.1,1l-1.2,1.2l-0.5,0.6l-0.6,0.9l0.7-0.1l1.1-0.9l0.5-0.5l1.5-1.7l0.5-0.5l0.7-0.8l0.8-1l0.8-0.9l0.8-0.7
			l1-1l0.6-0.4l0.5-0.5L283.9,58.3z M276.2,69.3l0.7-0.6l0.6-0.5l0.5-0.6l1.1-1.1l0.6-0.7l1-1.2l-0.8,0.4l-1.8,1.5l-0.6,0.6
			l-0.6,0.5l-0.6,0.6l-0.5,0.6l-0.5,0.7l-0.4,0.6l0.1,0.2L276.2,69.3z M280.6,67.4l-0.6,0.5l-2.4,2.2l-0.5,0.5l-1,1.1l-0.5,0.6
			l-0.4,0.6l0.4,0.1l0.7-0.5l1.2-1l0.6-0.6l0.6-0.5l1.2-1.2l0.5-0.6L281,68l0.5-0.7l0.1-0.7L280.6,67.4z M281.7,69.5l-1.7,1.7
			l-1,1.2l-0.6,0.5l-1.6,1.6l-1,1.2l0.4,0.2l1.8-1.5l0.5-0.5l0.6-0.5l0.5-0.6l0.5-0.5l2.1-2.4L281.7,69.5z M276.5,39.2l-0.5,0.4
			l0.4,0.2l0.6-0.4l0.6-0.5l1-1l0.5-0.7l0.4-0.4l0.2-0.4l-0.5,0.2l-0.9,0.8l-0.7,0.6L276.5,39.2z M281.2,73.4l-0.6,0.5l-2.9,2.8
			l-0.6,0.5l-0.7,1l0.4,0.3l1-0.9l3.6-3.5l1.2-1.3l0.1-0.8L281.2,73.4z M282.5,75.3l-0.7,0.5l-1.2,1.3l-0.5,0.6l-0.7,0.5l-0.6,0.6
			l-1.2,1l-0.4,0.7l0.6,0.4l1.3-1.2l0.5-0.6l0.5-0.5l0.5-0.6l1.6-1.6l0.8-1L282.5,75.3z M282.7,78.2l-1.1,1.1l-1.3,1.1l-0.6,0.6
			l-0.5,0.6l-0.5,0.7l-0.4,0.7l0.4,0.2l1.2-1l1.6-1.6l2.1-2.4l0.4-0.7l-0.2-0.2l-0.6,0.4L282.7,78.2z M285.6,53.1l-0.4,0.4l-0.4,0.4
			l-0.6,0.3l-1,0.7l-0.4,0.5l-0.8,1l-1,0.9l-0.7,0.5l-0.5,0.6l-0.4,0.6l0.2,0.2l0.6-0.4l0.6-0.5l0.5-0.6l1-1l0.9-1l0.6-0.4l0.8-0.9
			l0.2-0.5l0.5-0.3L285.6,53.1z M280,39.3l1-0.7l0.7-0.8l-0.1-0.1l-0.9,0.7l-0.5,0.9L280,39.3z M283.9,80.1l-1.1,1.1l-0.5,0.6
			l-0.6,0.5l-0.9,0.9l-0.3,0.6l0.8-0.1l0.7-0.5l0.7-0.6l0.6-0.6l1-1.3l0.4-0.7l-0.2-0.3L283.9,80.1z M281.4,40.8l-0.4,0.5l0.4,0.3
			l0.5-0.5l0.8-1l0.6-0.5l-0.3-0.3l-0.6,0.5L281.4,40.8z M283.5,41.9l-1.1,1.1l-0.7,1l-0.4,0.6l0.5-0.4l1-0.7l1.2-1.2l0.5-0.7l1-1
			l-0.3-0.3l-1.1,0.9L283.5,41.9z M282.5,52.7l-0.3,0.7l0.6-0.4L282.5,52.7z M283.8,45l-0.1,0.4l-0.7,0.4l0.3,0.3l0.4-0.7l0.4-0.3
			L283.8,45z M287.4,48.5l0.1-0.7l-0.8,0.6l-1,1.1l-0.6,0.5l-0.5,0.5l-0.7,0.8v0.4l0.6-0.4l0.7-0.6l1.1-1.2L287.4,48.5z M284.5,83.5
			l-0.2-0.1l-0.3,0.5L284.5,83.5z M285.5,46.6l-0.6,0.6l-0.4,0.4l0.5-0.3l0.6-0.6l0.3-0.5L285.5,46.6z M286.5,55.5l-0.3-0.1
			l-0.1,0.4L286.5,55.5z M286.7,41.9l0.3,0.4l0.6-0.7l-0.2-0.2L286.7,41.9z M287.6,51.6l-0.3-0.3l-0.6,0.5L287,52L287.6,51.6z
			 M288.8,43.8l-0.4-0.1v0.4L288.8,43.8z"/>
		<path class="st1" d="M323.3,40.8v2.9l-0.1,1v0.8l-0.1,0.9v0.5l-0.1,0.9l-0.1,0.9l-0.1,0.7l-0.1,1.1l-0.4,1l-0.7,0.4l-1.5,0.1
			l-1.3-0.1l-1.2,0.1l-0.7-0.1h-2.1l-0.8-0.1l-0.7-0.3l-0.1-0.6l0.1-0.8l0.1-1.2l0.1-1l0.1-0.5l-0.1-0.7l0.2-1.3l-0.1-0.5l-0.1-0.8
			l-0.1-0.4l-0.4-0.5l-0.4-0.4l-0.7-0.3h-1.6l-0.5,0.1l-0.7,0.4l-0.6,0.6l-0.2,0.4l-0.3,0.5l-0.2,0.5l-0.1,0.4l-0.4,0.8l-0.4,1
			l-0.2,0.9l-0.1,0.6l-0.2,0.5v0.5l-0.3,0.7l-0.1,0.4l-0.1,0.5l-0.1,0.9l-0.3,0.6l-0.1,0.5l-0.1,1l-0.2,0.5l-0.1,0.7l-0.1,0.7
			l-0.2,0.7l-0.2,1l-0.1,0.8l-0.3,1.4l-0.2,1l-0.1,0.5l-0.1,1l-0.1,0.4l-0.1,1v0.5l-0.2,0.7l-0.2,0.8v0.8l-0.1,1l-0.1,1l-0.1,0.5
			l-0.1,0.4l-0.1,1l-0.1,1v1.1l0.1,0.7v0.7l0.4,0.7l0.3,0.5l0.2,0.2l0.7,0.4l1.4,0.2h1.4l0.9-0.3l0.8-0.5l0.5-0.7l0.3-0.7l0.4-0.9
			l0.2-0.7l0.2-0.7l0.4-1.7l0.4-2.9l-0.1-0.4l-0.5-0.1h-1.7l-0.4-0.4v-0.9l0.4-2l0.2-1.8l0.1-0.7l0.1-0.6l0.4-1.6l0.1-0.3l0.4-0.4
			l1.8-0.1l0.6,0.1l1.2-0.1l1.2,0.1h2.7L318,58l1,0.1h1.5l0.9,0.4v1.8l-0.1,1v0.6l-0.1,0.9l-0.1,0.6l-0.1,0.4l-0.1,0.5v0.4l-0.2,1
			l-0.1,0.4l0.1,0.5l-0.1,0.4l-0.1,1l-0.1,0.5l-0.2,0.9l-0.1,0.5l-0.1,0.9l-0.1,0.8l-0.1,1.2l-0.3,1l-0.2,0.5l-0.1,1.4l-0.2,0.4
			l-0.1,0.6l-0.2,0.7l-0.4,1l-0.3,0.5l-0.1,0.4l-0.1,0.5l-0.5,1.1l-0.3,0.5l-0.7,1l-0.9,1.1l-0.9,0.6l-0.4,0.2l-0.6,0.4l-1,0.4
			l-1.1,0.4l-1.5,0.2l-0.4,0.1l-1,0.2l-1.2,0.2h-1.6l-0.7,0.1l-1-0.1h-1l-1.2-0.1h-0.4l-1.3-0.3l-0.7-0.2l-1.3-0.3l-1-0.5l-1-0.8
			l-0.6-0.3l-0.7-0.8l-0.3-0.4l-0.2-0.4l-0.5-0.9l-0.5-0.5l-0.2-0.7l-0.2-0.7l-0.1-0.6l-0.3-0.7l-0.2-0.5v-0.4l-0.3-1.5l0.1-1.3
			l0.1-0.7v-1l0.1-0.3v-1l0.1-0.5l0.1-0.4l0.1-1l0.1-0.5l0.1-1l-0.1-0.5l0.3-1v-1l0.2-1l0.1-1.1l0.3-1l0.1-1.2l0.1-0.6l0.3-1l0.1-1
			l0.4-1.5l0.2-1l-0.1-0.7l0.2-0.7l0.1-0.5l0.3-1l0.2-0.8l0.1-1l0.1-0.6L296,50l0.1-0.8l0.1-0.5l0.1-0.4l0.2-0.4l0.1-0.5l0.2-0.4
			l0.1-0.5l0.2-0.4l0.4-0.9l0.1-0.4l0.3-0.9l0.3-1l0.2-0.4l0.2-0.6l0.4-1l0.2-0.4l0.1-0.5l0.4-0.7l0.4-0.8l0.3-0.4l0.2-0.4l0.3-0.4
			l0.8-0.9l1-0.7l1-0.4l1-0.5l1-0.4l1-0.3l1.2-0.1l1-0.2h2.2l2-0.1l1,0.1l1,0.1l0.6,0.1h1l1.3,0.2l0.5,0.2l1.3,0.5l1,0.4l0.9,0.7
			l1,1l0.2,0.4l0.2,0.3l0.1,0.7l0.3,0.8l0.1,0.8L323.3,40.8z M294,71.5l0.7-0.6l0.7-0.5l0.6-0.6l0.7-0.6l0.6-0.6l1.1-1.2l0.5-0.6
			l0.5-0.5l1.2-1l0.5-0.5l1.3-1.8l-0.2-0.1l-0.7,0.5l-0.6,0.5l-0.6,0.6l-0.7,0.6l-0.6,0.5l-0.6,0.6l-0.5,0.6l-2.4,2.4l-0.5,0.6
			l-0.6,0.7l-0.6,0.6l-0.5,0.7l-0.1,0.4L294,71.5z M294,64l0.8,0.3l0.4-1.2l-0.7,0.4L294,64z M294.5,66.8l-0.4,0.6l0.2,0.2l0.7-0.5
			l1.8-1.5l0.5-0.5l0.6-0.5l0.5-0.6l2.7-2.7l1.1-1.2l-0.5-0.4l-0.7,0.5l-0.6,0.6l-0.6,0.7l-1.1,1.2l-0.6,0.5l-0.6,0.4l-0.6,0.5
			l-1,1.2l-0.4,0.5L294.5,66.8z M295.1,76.5l0.9-0.6l1.3-1l2.4-2.4l1.1-1l0.9-1.2l0.3-0.7l0.3-0.7l-0.5,0.5l-1.2,0.9l-1.1,1L299,72
			l-1.1,1.2l-0.6,0.5l-1.2,1.2l-0.6,0.7L295.1,76.5l-1,0.4l0.4,0.4L295.1,76.5z M302,66.2l-0.6,0.4l-1,1l-1.1,1.1l-2.9,2.5l-0.5,0.5
			l-1.2,1.3l0.5,0.6l0.7-0.4l0.6-0.4l0.6-0.5l0.6-0.6l1-1.2l2.3-2.3l1-1.3l0.5-0.9L302,66.2z M295.9,79.3l0.6-0.5l0.5-0.4l0.6-0.6
			l0.6-0.5l0.5-0.5l1-1.2l0.5-0.5l0.5-0.6l0.5-0.7l0.5-0.6l-0.3-0.3l-0.7,0.4l-1.1,1l-1.5,1.6L297,77l-1.2,1.3l-0.9,1L295.9,79.3z
			 M295.4,56.8l0.7-0.5l0.4-0.5l-0.3-0.2l-0.4,0.5L295.4,56.8z M303.8,55l-0.2-0.1l-0.4,0.5l-1,0.7l-1.2,1.1l-0.5,0.5l-1.7,1.5
			l-0.5,0.5l-1.2,1l-0.5,0.6L296,62l-0.3,1l1-0.4l0.6-0.6l0.6-0.5l0.5-0.6l1.1-1.1l1-1.1l1.2-1l0.4-0.6l0.4-0.7l0.6-1L303.8,55z
			 M302.1,75.4l-0.9,0.7l-0.6,0.5l-0.6,0.6l-2.1,2.4l-1.1,1.1l-0.7,1l-0.4,0.4l0.9-0.4l0.6-0.5l0.6-0.4l1-1.3l0.6-0.6l1.3-1l0.4-0.5
			l0.9-1.2l0.4-0.8L302.1,75.4z M296.9,58.1l0.3,0.4l0.5-0.5l0.6-0.8l0.8-0.6l0.6-0.4l0.5-0.4l0.2-0.8l-1,0.7l-0.6,0.7l-0.6,1
			l-0.9,0.5L296.9,58.1z M297.6,54.1l0.2,0.7l0.5-0.6l0.2-0.5l0.6-0.4l-0.3-0.1l-0.4,0.5L297.6,54.1z M301.8,78.8l-0.5,0.7l-0.5,0.6
			l-0.5,0.5l-0.6,0.5l-1.1,1l-0.4,0.5l-0.4,0.7l0.9-0.4l1.2-1.2l0.5-0.6l0.6-0.5l0.5-0.5l1.8-1.5l0.6-0.6l0.4-0.7l-0.4-0.5l-0.7,0.4
			l-0.5,0.4L301.8,78.8z M299,46.6l0.3-0.1l0.1-0.2L299,46.6z M300,48.6l0.4,0.3l0.6-0.5l0.4-0.6l-0.4-0.4l-0.6,0.5L300,48.6z
			 M304,79.6l-1,1.2l-0.4,0.6l-0.5,0.6l-1.6,1.6l-0.4,0.8l0.7-0.4l1-0.7l0.6-0.6l1.2-1l0.5-0.6l1.2-1.1l1-1.2l0.8-0.9l-0.3-0.4
			l-0.7,0.5l-0.7,0.8L304,79.6z M300.5,44.7l0.4,0.4l1-1.1l-0.3-0.2L300.5,44.7z M305.5,46.7l-0.2-0.1l-0.8,0.6l-0.7,0.6l-0.6,0.7
			l-1,1.1l-0.6,0.4l-0.4,0.6l0.3,0.3l0.5-0.4l0.4-0.6l1.2-1l0.7-0.5l0.5-0.7L305.5,46.7z M305.2,50.3l-0.8,0.4l-1,0.9l-0.7,0.4
			l-0.6,0.7l-0.5,0.7l0.3,0.3l0.7-0.4l0.6-0.6l0.5-0.7l1-1L305.2,50.3z M302.2,40.3l0.5-0.4l-0.3-0.3L302.2,40.3z M302.9,42.3
			l0.3,0.4l0.6-0.4l-0.4-0.4L302.9,42.3z M306,81.5l-0.9,0.6l-0.6,0.5l-0.7,1l-0.6,0.6l0.2,0.4l1.2-0.9l0.7-0.5l0.6-0.7L306,81.5z
			 M303.9,44.6l-0.4,0.5l0.2,0.3l0.5-0.4L303.9,44.6z M304,38.2l0.3,0.2l0.4-0.5l0.6-0.5l0.5-0.6l-0.7,0.3l-0.5,0.7L304,38.2z
			 M306.6,42.3l-0.7,0.4l-0.5,0.7L306,43L306.6,42.3z M307.1,38.8l-0.2-0.2l-0.9,0.8l0.4,0.3L307.1,38.8z M307,84.2l0.4-0.5
			l-0.7,0.4l-0.4,0.6L307,84.2z M307,80.6l0.1,0.1l1-0.7l1.1-1.1l0.7-0.5l0.6-0.6l1-1.2l0.6-0.5l0.4-0.6l0.4-0.7l-0.7,0.4l-1.6,1.5
			l-0.6,0.5l-2.4,2.4L307,80.6z M310.3,81l0.7-0.5l0.5-0.6l0.4-0.6l1.1-1.1l0.7-0.5l0.6-0.7l-0.4-0.4l-0.7,0.5l-0.6,0.7l-1,1.2
			l-0.7,0.4l-0.5,0.6l-0.4,0.7l-1.2,1l-0.7,0.6l-0.3,0.8l0.7-0.4L310.3,81z M308.8,40.4l0.4-0.6l-0.7,0.2L308.8,40.4z M316.6,77.6
			l-0.2-0.2l-0.8,0.8l-0.8,1l-1.8,1.5l-1.7,1.7l-0.5,0.6l-0.7,0.7h0.6l0.9-1l1.5-1.5l0.6-0.5l0.5-0.5l1.1-1l0.4-0.6L316.6,77.6z
			 M311.6,63.9l1.5-1.7l1.4-1.5l0.8-0.7l0.2-0.6l-0.5,0.1l-0.8,0.7l-1,0.9l-2.2,2.4l-0.7,1l0.7-0.1L311.6,63.9z M319.4,65.1
			l-0.7,0.4l-0.7,0.4l-1.5,1.7l-1.1,1.1l-0.5,0.6l-1.2,1l-1.7,1.6l-0.3,0.7l0.6,0.2l0.5-0.6L314,71l0.5-0.6l1.8-1.7L318,67l0.5-0.6
			l0.5-0.7L319.4,65.1z M312.2,66l1-0.9l0.5-0.5l0.6-0.5l0.5-0.5l0.6-0.7l-0.9,0.1l-1.6,1.6l-0.6,0.5l-0.4,0.5L312.2,66z M315.8,65
			l-1.1,1.1l-1,0.9l-0.9,1.3l-0.9,0.9l0.7-0.2l0.7-0.6l1.7-1.9l1.8-1.5l1.7-1.7l0.5-0.6l0.5-0.7l-0.4-0.1l-1.3,1.1l-0.5,0.6l-1,1
			L315.8,65z M318.9,68.9l-0.9,0.4l-0.6,0.6l-0.8,0.7l-0.9,0.7l-1,1.2l-0.5,0.5l-0.7,0.7l0.4,0.3l0.8-0.6l0.6-0.5l1.6-1.5l1-1
			l0.5-0.7L318.9,68.9z M314.9,37.4l-0.2-0.1l-0.4,0.3l0.1,0.2L314.9,37.4z M316.3,45.9l-0.3-0.4l-0.7,0.9l-0.3,0.4l0.4-0.1
			L316.3,45.9z M318.2,73.1l-0.2-0.3l-0.6,0.4l-0.6,0.5l-1,1l-0.5,0.7l0.3,0.2l0.7-0.4l0.5-0.5l0.6-0.5L318.2,73.1z M316.4,61.4
			l0.5,0.3l0.4-0.5l0.4-0.7l-0.2-0.1l-0.7,0.5L316.4,61.4z M319,40l0.6-0.9l0.4-0.4l-0.1-0.1l-0.2,0.5l-0.8,0.6l-0.7,0.4l-0.6,0.5
			l-0.6,0.6l-0.4,0.7v0.2l1.3-1L319,40z M316.6,38.4l0.4,0.3l0.4-0.6l1-0.8L318,37l-0.9,0.8L316.6,38.4z M319,46.3l-0.4-0.3
			l-0.7,0.5l0.4,0.4L319,46.3z M320.7,40.8l-1,0.7l-0.4,0.7l0.4,0.2l0.7-0.6L320.7,40.8z"/>
		<path class="st1" d="M354.9,34.6l-0.2,0.8v0.4l-0.1,1.8V38l-0.2,0.5l-0.1,0.5l-0.1,0.4l-0.2,1.1v0.6l-0.3,1l-0.1,0.4l-0.2,1
			l-0.7,0.1h-3.1l-0.9,0.1h-4.8L342,44l-0.2,0.9l-0.1,0.5v1l-0.2,0.4v0.6l-0.2,1.4l-0.1,1l-0.2,1l-0.1,0.5l0.1,0.6l-0.2,0.7
			l-0.1,1.3h1.3l2.6,0.1l1.4-0.1h1.9l0.6,0.1l0.4,0.6l-0.1,0.9v0.6l-0.1,0.8l-0.2,1l-0.1,0.5l-0.2,1.1V60l-0.2,0.6l-0.1,1l-0.2,1.2
			l-0.1,1l-0.1,0.1h-0.7l-1.1,0.1H345l-1.8,0.1l-1.3-0.1h-0.8l-1,0.1H339l-0.3,0.8l-0.2,1l-0.3,2.1l-0.2,0.7l-0.1,0.7l-0.1,0.7
			l-0.1,0.5l-0.2,1.3L337,74v0.6l0.3,0.3l1,0.1h4.3l1,0.1l1.6,0.1l2.1-0.1l0.5,0.2l-0.1,0.6l-0.1,0.3l-0.1,0.8l-0.1,0.6l-0.3,1.6v1
			l-0.1,0.5l-0.1,0.4l-0.1,0.5l-0.2,1.1l-0.1,1.3l-0.1,0.7l-0.2,0.8h-7l-1.2,0.1l-1-0.1l-0.4,0.1h-1.5l-1.2,0.1l-0.6,0.1l-1.4-0.1
			H330l-0.5-0.1h-3.9l-0.7-0.1l-0.2-0.7l0.2-0.7l0.1-0.7l0.1-1.1l0.1-1.2l0.3-1.1l0.1-1.2l0.2-0.6v-0.7l0.1-0.5v-0.5l0.1-0.6
			l0.1-0.5l0.1-1l0.1-1l0.3-0.6l0.1-1.2v-0.5l0.1-0.6l0.1-1v-0.4l0.3-0.9l-0.1-0.4l0.2-1l0.2-0.5l0.1-0.5l0.2-1.1l0.1-0.5l0.3-1.5
			v-1.1l0.3-1l0.1-1.1l0.2-0.5l0.1-0.6l0.1-0.5v-0.5l0.3-0.4l0.4-2.2l0.2-0.6l0.1-0.5l-0.1-0.4l0.2-1l0.3-1.1l0.1-2.1l0.2-0.5
			l0.1-1.5l0.3-0.4l0.1-0.6l0.1-0.5l-0.1-0.4l0.1-0.5l0.3-1l0.1-1l0.2-0.4v-0.5l0.2-0.5l-0.1-0.4l0.1-0.5l0.1-1l0.1-0.4l0.1-0.4
			l0.1-1l0.1-0.4l-0.1-0.5l0.2-0.9l0.2-0.4L333,35l0.6-0.4h1.3L336,34l0.5,0.1l0.9-0.1h0.5l0.6,0.1h0.7l1.6-0.1l5.5-0.1L348,34
			l0.6,0.1l2.1-0.1h1.6l0.7-0.1l0.7,0.1l0.7,0.1L354.9,34.6z M327.8,75.6l0.6-0.4l0.4-0.7l1.4-1.4l0.4-0.4l1.5-1.2l0.4-1l-0.9,0.5
			l-0.8,1l-0.4,0.5l-0.5,0.4l-0.7,0.5l-0.8,0.7l-0.5,0.5l-0.4,0.6l-0.7,0.8l0.2,0.1L327.8,75.6z M328.8,77.9l0.7-0.6l0.5-0.9
			l0.3-0.2l0.6-0.5l0.4-0.6l0.5-0.4l-0.7,0.4l-0.6,0.4l-0.7,0.7l-1,0.7l-0.5,0.7L328.8,77.9z M339.7,56.6l-0.6,0.5l-0.5,0.5
			l-0.6,0.5l-1,1.1l-2.2,2.3l-0.6,0.5l-0.5,0.6l-1.7,1.6l-0.5,0.5l-0.6,0.5l-1,1.2l-0.4,0.6l-0.5,0.7l0.4-0.3l0.9-0.8l0.5-0.5l1.1-1
			l0.6-0.5l1-1.2l0.6-0.6l0.6-0.5l0.6-0.6L337,60l1.8-1.8l1.2-1.3l1-1l0.3-0.5l-0.5,0.1L339.7,56.6z M330.5,79.5l-0.4-0.3l-0.5,0.5
			l-0.6,0.8l0.2,0.3L330,80L330.5,79.5z M341.3,58.1l-1.2,1.2l-1.3,1l-1.1,1.2l-0.5,0.7l-2.9,2.9l-0.7,0.5l-1.1,1.2l-0.4,0.5
			l-0.4,0.7l-0.7,0.7l-0.4,0.5l0.1,0.3l0.4-0.7l1.1-0.8l1.3-1.2l2.3-2.4l1.2-1.2l1.8-1.7l1.2-1.2l0.6-0.5l1.2-1.2l0.7-0.6l1.2-1.1
			l0.5-0.7l0.4-1l-0.7,0.4l-1.2,1l-0.5,0.6L341.3,58.1z M330.6,62.6l0.2,0.4l1.5-1.8l2.9-2.6l0.6-0.7l0.6-0.6l1.1-1.3l0.5-0.7
			l0.7-0.8l0.2-0.4l-0.7,0.5l-1.2,0.9l-2.4,2.4l-1.1,1.2l-0.4,0.6l-1.1,1.1l-0.5,0.6L331,62L330.6,62.6z M331.9,81.2l-0.1-0.2
			l-0.6,0.5l-0.4,0.5l0.6-0.3L331.9,81.2z M330.9,59.1l0.1,0.3l0.7-0.5l1-0.8l1.1-1.2l1.5-1.8l0.6-0.5l1.1-1l1.1-1.1l0.4-0.6
			l0.5-0.6l0.7-0.7l-1,0.1l-1.2,1.1l-1.8,1.8l-1.1,1.3l-0.6,0.6l-1.1,1l-0.6,0.5l-0.4,0.6l-0.7,1L330.9,59.1z M332.8,77.1l0.5-0.5
			l1.1-1l0.5-0.5l0.3-0.7l-0.8,0.5l-0.7,0.5l-1.2,1.2l-0.5,0.7l-0.5,0.8l0.6-0.3L332.8,77.1z M331.8,48.5l0.4-0.1l1-0.7l0.7-0.6
			l0.6-0.6l0.6-0.7l1.7-1.7l1.8-2.1l0.2-0.5l0.3-0.3l0.7-0.4l-0.4-0.4l-0.4,0.8l-0.4,0.3l-0.8,0.6l-0.6,0.4l-1.2,1l-0.5,0.6
			l-0.6,0.5l-1.1,1.1l-0.5,0.6l-0.8,1.2l-0.4,0.7L331.8,48.5z M331.8,54.8l0.4,0.3l0.7-0.4l0.7-0.5l0.5-0.5l0.5-0.7l0.5-0.6l1-1.3
			l1.3-1l0.7-0.6l0.5-0.7l0.5-0.7l0.6-0.8L340,47l-0.4,0.2l-0.6,0.4l-1,0.7l-0.6,0.5l-0.5,0.5l-1.1,1l-2.3,2l-1,1.2l-0.4,0.6
			L331.8,54.8z M338.1,45l-0.5,0.5l-1.7,1.5l-1.5,1.5l-0.6,0.5l-0.4,0.6l-0.5,0.5l-0.5,0.6l-0.4,0.6l0.1,0.7l1-0.9l2.1-2.4l0.5-0.6
			l0.6-0.6l0.5-0.6l0.6-0.6l0.6-0.5l1-1v-0.7L338.1,45z M333.1,73.4l0.8-0.7l0.4-0.6l-0.6,0.3l-0.7,0.9l-0.3,0.3L333.1,73.4z
			 M336.1,76.6l-1,0.6l-0.6,0.5l-1,1.1l-0.7,0.9l0.4,0.3l0.7-0.7l1-1.1l0.5-0.6L336.1,76.6z M341.4,36.3l-0.5-0.4l-1.5,1.5l-0.7,0.7
			l-1.2,1l-0.6,0.6l-0.7,1l-0.3,0.2l-0.3,0.3l-0.7,0.7l-0.4,0.5l-1.3,1.3h0.7l0.6-0.4l0.5-0.5l0.4-0.6l0.4-0.7l0.3-0.3l0.3-0.4
			l0.7-0.6l0.6-0.4l0.6-0.5l0.5-0.5l0.8-1l1-0.8L341.4,36.3z M333.9,82.1l-0.4,0.2l0.3,0.1L333.9,82.1z M333.9,39.8l0.8-0.4l0.6-0.4
			l0.6-0.6l0.5-0.6l1.1-0.9l-0.5-0.5l-0.9,1.1l-1,1l-0.4,0.7L333.9,39.8z M337.5,65.6l-0.7,0.3l-1,1l-0.5,0.5l-0.5,0.6l-0.7,0.7
			l0.3,0.1l0.7-0.7l0.5-0.4l0.5-0.6l1-1L337.5,65.6z M335.7,80.3l-0.2,0.1l-0.3,0.4L335.7,80.3z M336.2,70.3l-0.1-0.3l-0.4,0.4
			l-0.3,0.3l-0.1,0.3l0.2-0.1l0.3-0.3L336.2,70.3z M337.3,81.8l0.3-0.1l0.4-0.2l0.6-0.4l0.4-0.6l0.3-0.3l1.5-1l0.6-0.6l0.5-0.6
			l0.6-0.6l0.7-0.9l0.1-0.4l-0.7,0.7l-0.7,0.5l-1.2,1l-1.8,1.8l-0.1,0.3l-0.4,0.6l-0.5,0.4l-0.3,0.3L337.3,81.8z M337.5,78.2
			l0.2,0.6l0.5-0.4l0.3-0.8l0.5-0.3l0.4-0.4l0.2-0.2h-0.4l-0.4,0.4l-0.3,0.5L337.5,78.2z M338.3,35.6l0.4-0.4l-0.3,0.2L338.3,35.6z
			 M343.2,59.5l-0.6,0.4l-0.5,0.5l-0.4,0.5l-0.5,0.6l-1.1,1.1l-0.5,0.7l0.1,0.1l0.8-0.6l1-0.8l1.6-1.6l0.5-0.6l1-1l0.5-0.4l1-1
			l0.2-0.7l-0.9,0.5l-0.7,0.4L343.2,59.5z M341.2,81.5l-0.3-0.3L340,82l-0.4,0.7l0.7-0.4L341.2,81.5z M342.3,38.1l0.8-0.5l0.6-0.4
			l0.9-1.2l-0.2-0.3l-0.7,0.5l-0.5,0.5l-1,1.3l-0.3,0.3l-1,0.9l0.1,0.4l0.5-0.4l0.4-0.7L342.3,38.1z M342.2,83.6l-0.6,0.4l0.1,0.2
			l0.3-0.4L342.2,83.6z M343.6,78.6l-0.7,0.4l-0.8,1.1l0.5,0.1l0.7-0.5L344,79L343.6,78.6z M348.5,35.2l-0.5,0.2l-0.5,0.4l-0.4,0.5
			l-0.8,0.6l-0.6,0.8l-0.6,0.6l-0.4,0.5l-0.2,0.3l-0.7,0.5l-1.1,1.3l0.6-0.3l1-0.6l0.2-0.8l0.4-0.4l0.5-0.3l0.7-0.6l0.7-0.7l0.7-0.7
			l0.4-0.6l0.6-0.4L348.5,35.2z M343.6,62.8l-0.4-0.1v0.4l-0.2,0.2l0.2-0.1L343.6,62.8z M344,81.8l-0.4,0.2l-0.4,0.3l0.3,0.2
			l0.3-0.4L344,81.8z M346.6,59.7l-0.2,0.1l-0.7,0.4l-0.5,0.7l-0.6,0.6l0.2,0.1l0.5-0.5l0.7-0.6L346.6,59.7z M344.8,81l0.2-0.2
			l0.7-0.4l0.3-0.6l-0.6,0.1l-0.4,0.8L344.8,81z M346.4,40.6l-0.4,0.2l-0.3,0.4l0.4-0.2L346.4,40.6z M351.5,38.7l-0.2-0.2l-0.2,0.4
			l-0.5,0.4l-0.4,0.4l-0.7,0.7l0.1,0.1l0.2-0.5l0.4-0.2l0.5-0.4l0.4-0.5L351.5,38.7z M349.6,37l0.4,0.3l0.4-0.6l0.1-0.4l-0.4,0.2
			L349.6,37z M350.8,36l0.4-0.4l-0.2,0.1L350.8,36z"/>
		<path class="st1" d="M386.4,44.6v0.6l-0.2,1l-0.1,0.5l0.1,1.1v0.5l-0.2,1.2l-0.1,1.2l-0.2,0.7l-0.3,0.9l-0.1,0.5l-0.1,0.4
			l-0.2,0.5l-0.4,0.9l-0.7,1l-0.2,0.5l-0.3,0.7l-0.6,1l-0.2,0.4l-0.8,1l-0.4,0.4l-1,1.1l-1.5,1l-1,0.5l-0.5,0.1V63l0.2,0.6l0.4,1.1
			v0.7l0.1,1l0.3,0.4l0.1,0.6l0.1,1l0.2,0.4l0.2,1l0.1,0.4l0.1,1l0.2,0.5l0.1,0.6l0.3,1v0.4l0.4,1.1l0.1,1l0.8,2.7l0.1,1l0.5,1.3
			l0.1,0.9l0.1,0.5l0.1,0.7l0.5,1.4l-0.2,1l-0.4,0.1l-0.8,0.1h-1l-1.5,0.2l-1.9,0.2h-1l-0.8,0.1h-0.6l-0.7,0.1l-0.4-0.1l-0.7-0.7
			l-0.1-0.4l-0.2-0.9l-0.1-0.4l-0.2-0.8l-0.4-1.1v-0.6l-0.2-0.6l-0.1-0.2l-0.1-1l-0.2-0.5v-0.5l-0.2-0.4l-0.1-0.5l-0.2-0.8l-0.3-0.7
			V75l-0.4-1.3l-0.1-0.5l-0.3-0.9l-0.1-0.5l-0.1-1l-0.3-1l-0.1-1l-0.1-0.4l-0.2-1l-0.1-0.7l-0.3-0.6l-0.1-0.6l-0.3-0.6l-0.3-0.3
			l-0.5-0.1l-0.1,0.3l-0.1,0.4l-0.2,1l-0.1,0.6l-0.2,1.5v1.3l-0.4,1l-0.1,1V72l-0.1,1l-0.3,0.6V75l-0.1,0.6l-0.3,1.5l-0.1,0.6
			l-0.1,0.4v0.6l-0.2,1l0.1,0.4l-0.1,0.5V81l-0.1,1l-0.1,0.5v0.4l-0.1,0.5l-0.1,0.9l-0.2,0.5l-0.2,0.7l-0.7-0.1l-0.7,0.1l-1.1,0.1
			l-0.6,0.1l-2.7-0.1h-1l-2.3-0.1l-0.7-0.1l-0.1-0.4v-0.7l0.2-0.7l0.1-0.7l0.1-0.8v-0.5l0.1-0.4v-0.5l0.2-0.5v-0.4l0.1-0.5l0.2-1
			v-0.5l0.2-0.6l-0.1-0.5l0.2-0.6l0.1-1l0.1-0.6l0.1-0.5l-0.1-0.6l0.3-0.6v-1.1l0.4-1.3v-0.7L356,69l0.1-1.1V67l0.3-1l0.1-0.5
			l0.1-0.6v-0.7l0.4-0.5l0.1-0.4l-0.1-0.4l0.1-0.9l0.1-0.5l0.2-0.4v-0.4l0.1-0.5l0.1-0.8l0.1-0.4l0.1-1l0.1-1v-0.6l0.4-1.5v-0.5
			l0.1-0.4l0.1-0.5l0.1-1l0.1-0.4v-0.5l0.1-0.4l0.3-0.9l0.1-1l0.1-0.4l0.2-1l0.2-1.2l0.2-1l0.1-0.4v-0.4l0.1-1V43l0.1-0.5l0.2-0.9
			l0.2-1.2l0.3-2.1l0.1-0.6l0.1-0.5v-0.6l0.3-0.6l-0.1-0.8l0.3-0.4l0.5-0.6l0.7-0.1h1l4.4,0.1h3.2l0.5-0.1l0.7-0.1l0.6,0.1l1.1,0.1
			h0.7l1,0.1l1.1,0.1l0.8,0.1h1.2l0.6,0.1l0.8,0.4l0.7,0.3l0.5,0.1l0.7,0.4l0.4,0.2l0.4,0.2l0.9,0.5l0.3,0.3l0.4,0.4l0.3,0.4
			l0.5,0.9l0.5,1l0.2,1.2l0.1,1.4v0.5L386.4,44.6z M363.7,73.7l-0.9,0.8l-0.7,0.6l-0.6,0.6l-0.6,0.5l-2.9,2.9l-1,1.1l-0.8,0.9
			l-0.7,0.6l-0.4,1l0.8-0.5l0.7-0.6l1-1l1.1-1l0.5-0.6l1-1l0.5-0.6l1.6-1.6l0.6-0.7l0.5-0.7L363.7,73.7z M364.6,70.1h-0.7l-0.6,0.5
			l-0.7,0.6l-0.6,0.6l-0.5,0.6l-1.2,1.2l-1.1,1.2l-0.6,0.5l-0.6,0.6l-2.1,2.4l-0.4,0.7l0.2,0.1l0.5-0.6l0.6-0.5l3.5-3.3l1.1-1.2
			L362,73l1.2-1.2l0.5-0.6L364.6,70.1z M364.7,67l-0.1-0.7l-0.7,0.7l-1.2,1l-0.6,0.6l-0.6,0.5l-0.5,0.6l-0.6,0.6l-0.6,0.5l-0.5,0.6
			l-0.6,0.6l-0.5,0.6l-1.6,1.6l-0.4,0.7l-0.4,0.7l0.8-0.4l0.7-0.6l1.6-1.6l0.5-0.6l1.1-1l1.3-1l1.2-1.2l0.5-0.7l1.1-1.2L364.7,67z
			 M369,59.7l1.6-1.8l0.6-0.6l0.5-0.9l-0.7,0.2l-2.3,2.2l-2.2,2.3l-2.3,2.3l-2.2,2.3l-2.7,2.9l-2.7,2.9l0.7-0.5l1.2-1l0.6-0.6
			l0.6-0.5l1.2-1.2l3.5-3.4l0.6-0.6l0.5-0.6l0.6-0.5l0.6-0.6l1.3-1.1L369,59.7z M357.4,67l0.1,0.6l1-1l0.6-0.5l0.5-0.6l1.1-1.2
			l1.3-1.1l1.2-1.2l0.6-0.7l0.6-0.6L365,60l0.6-0.6l0.9-1L368,57l0.5-0.7l-0.3-0.3l-0.7,0.6l-0.5,0.7l-1.8,1.5l-0.6,0.5l-0.5,0.5
			l-0.6,0.5l-1.1,1l-0.5,0.6l-0.5,0.5l-0.5,0.6l-0.6,0.5l-1,1.1l-1,1.1L357.4,67z M357.5,64.1l1.1-0.7l4.1-4.1l0.6-0.7l1.2-1.2
			l1.6-1.8l0.7-1l0.6-0.4l-0.6,0.4l-1,0.5l-1.1,1.2l-0.6,0.7l-0.5,0.6l-0.6,0.6l-1.3,1.2l-0.6,0.6l-0.6,0.5l-1.8,1.8l-0.9,1
			l-0.3,0.6L357.5,64.1z M358,59.9l0.4,0.4l0.4-0.6l1-1l0.5-0.7l1-0.5l0.6-0.7l-0.4-0.4l-0.7,0.6l-0.4,1l-0.7,0.4l-1,0.9L358,59.9z
			 M363,78.2l-0.2-0.2l-1.3,1l-0.6,0.5l-1.2,1.2l-0.6,0.7l-0.5,0.6l-0.4,0.7l0.4,0.1l0.6-0.5l0.7-0.5l0.6-0.5l0.5-0.6l0.6-0.6
			l0.5-0.7l0.5-0.6L363,78.2z M362.6,81.7l-0.4,0.1l-0.9,0.4l-0.5,0.6l-0.4,0.6l-0.4,0.7l0.3,0.4l0.6-0.4l1-1l0.5-0.6L362.6,81.7z
			 M360.2,51.3l0.3,0.4l0.7-0.8l0.9-0.9l0.6-0.5l0.7-0.5l0.6-0.6l0.7-0.5l0.6-0.6l0.5-0.6l1-1.3l0.1-0.6l-0.7,0.7l-0.5,0.6l-2.8,2.6
			l-0.6,0.6l-0.7,0.9l-0.4,0.6L360.2,51.3z M361.9,46.6l0.3,0.2L363,46l0.5-0.6l0.5-0.7l0.8-0.8l0.2-0.4l0.8-0.4l0.4-0.6l-0.3-0.2
			l-0.6,0.5l-0.4,0.7l-0.5,0.1l-0.9,0.7l-1,1.3L361.9,46.6z M362.3,42.9l0.8-0.4l0.6-0.6l0.6-0.5l0.5-0.7l-0.2-0.1l-0.6,0.5
			l-0.6,0.6l-0.5,0.6L362.3,42.9z M363.3,52.3l0.6-0.5l0.5-0.6l0.4-0.7l0.5-0.8l-0.8,0.4l-0.7,0.4l-0.6,0.5l-0.5,0.6l-0.4,0.7
			l0.3,0.3L363.3,52.3z M363,55.5l0.7-0.4l0.6-0.4l0.9-1.2l0.5-0.5l1-1.2l0.6-0.7l-0.8,0.4l-1.2,1.1l-1.2,1.2l-1.2,1.1v0.6H363z
			 M363.6,38.2l0.3,0.4l0.7-0.5l0.4-0.6l0.5-0.7l-0.7,0.3l-0.7,0.5L363.6,38.2z M366.3,38.5l0.3,0.7l0.7-0.5l0.7-1l-0.3-0.2
			l-0.8,0.7L366.3,38.5z M367.7,40.5l-0.4,0.5l0.4,0.4l0.5-0.4l2.1-2.2l0.6-0.4l0.6-0.5l0.4-0.7l0.7-0.9l-0.3-0.1l-1.4,1l-0.5,0.6
			l-0.4,0.7l-1.2,1L367.7,40.5z M369.4,62.5l0.6-0.7l1.1-1.2l0.5-0.6l1.3-1.2l0.6-0.6l0.7-0.6l0.9-1l-0.7,0.1l-1.8,1.5l-1.2,1.2
			l-0.6,0.5l-0.6,0.6l-0.5,0.6l-0.6,0.7l-1,1.2l0.2,0.5L369.4,62.5z M375.8,44.2l-0.4-0.7l-0.5-0.5l-0.7-0.4l-1.6-0.2l-1.8-0.1
			l-0.7,0.2l-0.2,0.8l-0.2,0.5l-0.1,1.2l-0.1,1.1l-0.1,1l-0.1,0.6l-0.2,1.2v0.5l-0.1,1.1l-0.2,0.7l0.1,0.7l-0.1,0.7l-0.2,1.2
			l-0.1,0.5l0.1,0.5l-0.1,0.6l1.3,0.1h1.2l0.9-0.2l0.4-0.3l0.7-0.4l0.5-0.3l0.5-0.6l0.3-0.4l0.5-0.4l0.4-1l0.1-0.6l0.1-0.4l0.5-1
			v-0.6l0.2-0.6l0.1-1.2l-0.1-1.6L375.8,44.2z M369.6,65.1l1.3-1l1.2-1l0.6-0.6l0.5-0.6l0.7-1l0.1-0.4l-0.4,0.1l-0.8,0.9l-0.7,0.4
			l-0.6,0.5l-1.2,1.2l-0.5,0.6l-0.4,0.7L369.6,65.1z M379.7,58.3l-0.2-0.3l-0.7,0.4l-0.5,0.5l-0.4,0.6l-1,1l-0.7,0.8l-1,0.7l-1.1,1
			l-0.6,0.4l-0.4,0.6l-1.1,1l-1.2,1.2l-0.5,0.6l-0.6,0.9l0.7-0.1l1.1-0.9l0.5-0.5l1.5-1.7L374,64l0.7-0.8l0.8-1l0.8-0.9l0.8-0.7l1-1
			l0.6-0.4l0.5-0.5L379.7,58.3z M372,69.3l0.7-0.6l0.6-0.5l0.5-0.6l1.1-1.1l0.6-0.7l1-1.2l-0.8,0.4l-1.8,1.5l-0.6,0.6l-0.6,0.5
			l-0.6,0.6l-0.5,0.6l-0.5,0.7l-0.4,0.6l0.1,0.2L372,69.3z M376.4,67.4l-0.6,0.5l-2.4,2.2l-0.5,0.5l-1,1.1l-0.5,0.6l-0.4,0.6
			l0.4,0.1l0.7-0.5l1.2-1l0.6-0.6l0.6-0.5l1.2-1.2l0.5-0.6l0.6-0.6l0.5-0.7l0.1-0.7L376.4,67.4z M377.5,69.5l-1.7,1.7l-1,1.2
			l-0.6,0.5l-1.6,1.6l-1,1.2l0.4,0.2l1.8-1.5l0.5-0.5l0.6-0.5l0.5-0.6l0.5-0.5l2.1-2.4L377.5,69.5z M372.3,39.2l-0.5,0.4l0.4,0.2
			l0.6-0.4l0.6-0.5l1-1l0.5-0.7l0.4-0.4l0.2-0.4l-0.5,0.2l-0.9,0.8l-0.7,0.6L372.3,39.2z M377,73.4l-0.6,0.5l-2.9,2.8l-0.6,0.5
			l-0.7,1l0.4,0.3l1-0.9l3.6-3.5l1.2-1.3l0.1-0.8L377,73.4z M378.3,75.3l-0.7,0.5l-1.2,1.3l-0.5,0.6l-0.7,0.5l-0.6,0.6l-1.2,1
			l-0.4,0.7l0.6,0.4l1.3-1.2l0.5-0.6l0.5-0.5l0.5-0.6l1.6-1.6l0.8-1L378.3,75.3z M378.5,78.2l-1.1,1.1l-1.3,1.1l-0.6,0.6l-0.5,0.6
			l-0.5,0.7l-0.4,0.7l0.4,0.2l1.2-1l1.6-1.6l2.1-2.4l0.4-0.7l-0.2-0.2l-0.6,0.4L378.5,78.2z M381.4,53.1l-0.4,0.4l-0.4,0.4l-0.6,0.3
			l-1,0.7l-0.4,0.5l-0.8,1l-1,0.9l-0.7,0.5l-0.5,0.6l-0.4,0.6l0.2,0.2l0.6-0.4l0.6-0.5l0.5-0.6l1-1l0.9-1l0.6-0.4l0.8-0.9l0.2-0.5
			l0.5-0.3L381.4,53.1z M375.8,39.3l1-0.7l0.7-0.8l-0.1-0.1l-0.9,0.7l-0.5,0.9L375.8,39.3z M379.7,80.1l-1.1,1.1l-0.5,0.6l-0.6,0.5
			l-0.9,0.9l-0.3,0.6l0.8-0.1l0.7-0.5l0.7-0.6l0.6-0.6l1-1.3l0.4-0.7l-0.2-0.3L379.7,80.1z M377.2,40.8l-0.4,0.5l0.4,0.3l0.5-0.5
			l0.8-1l0.6-0.5l-0.3-0.3l-0.6,0.5L377.2,40.8z M379.3,41.9l-1.1,1.1l-0.7,1l-0.4,0.6l0.5-0.4l1-0.7l1.2-1.2l0.5-0.7l1-1l-0.3-0.3
			l-1.1,0.9L379.3,41.9z M378.3,52.7l-0.3,0.7l0.6-0.4L378.3,52.7z M379.6,45l-0.1,0.4l-0.7,0.4l0.3,0.3l0.4-0.7l0.4-0.3L379.6,45z
			 M383.2,48.5l0.1-0.7l-0.8,0.6l-1,1.1l-0.6,0.5l-0.5,0.5l-0.7,0.8v0.4l0.6-0.4l0.7-0.6l1.1-1.2L383.2,48.5z M380.3,83.5l-0.2-0.1
			l-0.3,0.5L380.3,83.5z M381.3,46.6l-0.6,0.6l-0.4,0.4l0.5-0.3l0.6-0.6l0.3-0.5L381.3,46.6z M382.3,55.5l-0.3-0.1l-0.1,0.4
			L382.3,55.5z M382.5,41.9l0.3,0.4l0.6-0.7l-0.2-0.2L382.5,41.9z M383.4,51.6l-0.3-0.3l-0.6,0.5l0.2,0.2L383.4,51.6z M384.6,43.8
			l-0.4-0.1v0.4L384.6,43.8z"/>
		<path class="st1" d="M416.1,45.1l-0.1,1.3l-0.3,2.1l-0.3,1.6l-0.9,0.4l-1.3,0.1h-4.1l-1-0.1h-1l-0.6-0.5l-0.1-1l0.1-0.6l0.2-2.3
			v-1.7l-0.1-0.9l-0.2-0.4l-0.7-0.7l-0.7-0.6l-1-0.1l-0.9,0.3l-0.8,0.4l-0.4,0.5l-0.2,0.5l-0.3,0.7l-0.1,0.5l-0.2,0.7l-0.1,1v1
			l0.1,0.5l0.5,1.4l0.6,1l0.3,0.6l0.5,1l0.8,1l1,1.2l0.3,0.4l0.4,0.4l0.3,0.6l0.3,0.4l0.4,0.3l0.7,0.6l0.2,0.4l0.4,0.2l0.2,0.4
			l0.7,0.7l0.4,0.7L410,60l0.5,1.3l0.7,0.8l0.1,0.4l0.6,1.5l0.4,1l0.4,1.5l0.1,0.5l0.1,0.6l0.1,0.5l0.4,1.3l0.1,0.4l-0.1,1l-0.1,0.4
			l0.1,0.5l-0.1,0.5v2.1l-0.2,1l-0.1,0.4v1.1l-0.3,1l-0.1,0.6l-0.1,0.7l-0.4,1l-0.7,1.3l-0.4,0.3l-0.4,0.7l-0.4,0.3l-0.6,0.7
			l-0.4,0.3l-0.6,0.5l-0.7,0.4l-0.7,0.5l-0.9,0.2l-0.4,0.3l-1.1,0.4l-0.6,0.1l-1,0.3l-0.5,0.1l-0.7-0.1l-0.5,0.1h-0.8l-0.5,0.1
			l-0.8,0.1l-1.8-0.1l-0.5-0.1h-0.7l-0.8-0.1l-0.7-0.1l-0.5-0.1l-1.2-0.5l-0.8-0.3l-0.7-0.5l-0.9-0.6l-0.7-1l-0.7-0.9l-0.7-1
			l-0.5-1.3l-0.1-0.6l-0.5-1.3l-0.1-0.4l-0.2-1l-0.1-0.4l-0.1-1.2V73l0.1-1.3l-0.1-0.5l0.1-1.1l0.1-0.6l0.1-0.5l0.2-1.2l1-0.5
			l1.8-0.1l0.9,0.1h4.1l1,0.1l0.6,1v2.7l-0.1,0.5v1.5l0.1,1.6l0.2,0.7l0.5,1.1l0.7,0.7l1,0.2h0.7l0.6-0.1l0.8-0.2l0.4-0.4l0.4-0.7
			l0.3-0.5l0.3-0.9l0.1-0.9l0.1-0.7v-0.5l-0.1-1v-1.2l-0.3-1.3v-0.4l-0.2-1.1l-0.6-1l-0.6-0.9l-0.5-1l-0.3-0.4l-0.1-0.4l-0.2-0.4
			l-0.5-0.5l-0.4-0.6l-0.8-1l-0.4-0.4l-0.3-0.4l-0.8-1l-0.9-1l-0.7-1l-0.7-0.8l-0.7-0.6l-0.4-0.5l-0.4-0.7l-0.4-1.1l-0.3-0.7
			l-0.4-0.5l-0.2-0.5l-0.1-0.6l-0.3-1l-0.1-1l-0.1-0.6l0.1-0.5v-2.1l0.1-1.5l0.2-0.5l0.1-1l0.3-0.5l0.2-0.7l0.1-0.7l0.4-1l0.3-0.6
			l0.2-0.5l0.2-0.4l0.6-0.7l0.2-0.3l0.4-0.7l0.4-0.4l0.9-0.7l1.3-1l1.2-0.4l0.8-0.4l1.4-0.3l1.3-0.4h2.3l1.8,0.1h0.5l0.7,0.1
			l1.1,0.1l1.3,0.4l0.5,0.1l0.3,0.2l0.9,0.4l0.5,0.4l0.6,0.2l0.8,0.7l0.2,0.3l0.7,0.8l0.2,0.4l0.5,0.8l0.3,0.4l0.1,0.8l0.2,0.5
			L416,42v1.6L416.1,45.1z M388.9,74.3l0.2,0.2l1-0.9l-0.3-0.1L388.9,74.3z M390.6,76.4l0.6-0.6l0.8-1l-0.3-0.1l-1,0.7l-0.6,0.6
			l-0.4,1l-0.7,0.3l0.2,0.3l0.4-0.6L390.6,76.4z M392.3,78.1l-0.4-0.3l-1.1,1l0.3,0.4L392.3,78.1z M394.1,47l1.2-1.1l0.6-0.7
			l1.3-1.2l1.3-1.1l0.6-0.7l0.8-1l1-1.1l0.5-0.6l1.2-1l1.2-1.1l1.2-1.2l0.4-0.7l0.1-0.9l-0.7,0.6l-2.4,2.1l-1,1.3l-0.6,0.7l-1.2,1.3
			l-2.1,1.9l-1.1,1l-1,1.2l-0.5,0.5l-0.5,0.7l-0.4,0.6l-1,0.8l0.3,0.3L394.1,47z M393.8,73.1l1-1l-0.4-0.4l-1,1l-0.5,0.7L393.8,73.1
			z M393.1,44.2l0.2,0.2l0.7-0.7l0.5-0.5l0.4-0.5l0.8-0.9l0.4-0.6l1-0.6l0.7-0.4l0.6-0.7l0.4-0.7l-0.4-0.6l-0.7,0.4l-0.5,0.6
			l-0.9,1.1l-0.2,0.8l-0.6,0.3l-0.9,0.7l-0.6,0.5l-0.4,0.7L393.1,44.2z M394,50.2l-0.1-0.1l-0.3,0.3L394,50.2z M396.2,51.4l0.7-0.5
			l0.6-0.6l0.5-0.6l0.6-0.6l0.4-0.6l-0.1-0.7l-0.8,0.9l-2.4,2.4l-0.5,0.6l-0.7,1l-0.2,0.4l0.7-0.6l0.7-0.4L396.2,51.4z M397.6,79
			l-0.1-0.4l-0.9,0.7l-0.5,0.5l-0.4,0.8l-0.8,0.4l-0.5,0.5l0.4,0.4l0.5-0.5l0.4-0.7l0.9-0.4l0.4-0.5L397.6,79z M406.6,37.7l0.8-1
			l1-0.7l0.5-0.7l-0.4-0.3l-0.6,0.6l-0.9,1l-1.1,0.9l-0.7,0.7l-0.6,0.7l-0.6,0.6l-1,1l-0.5,0.8l-1,0.9l-0.6,0.6l-1.1,1l-0.6,0.6
			l-0.6,0.5l-1.8,1.8l-0.5,0.6l-0.6,0.6l-1,1l0.7,0.1l1.8-1.5l1.1-1.1l0.5-0.6l0.6-0.6l2.1-2.4l0.5-0.6l0.6-0.5l1.5-1.4L406.6,37.7z
			 M395.4,38.5l0.2,0.4l0.9-0.7l0.5-0.5l0.4-0.6l0.8-0.8l0.3-0.5L398,36l-0.8,0.7l-0.6,0.4l-0.4,0.6L395.4,38.5z M397.3,82.4
			l-0.1-0.3l-0.6,0.4l-0.4,0.6l-0.4,0.7l0.7-0.2l0.6-0.5L397.3,82.4z M397.3,53.6l0.6-0.6l0.4-0.6l1.1-1.1l0.7-0.5l0.5-0.7l-0.4-0.3
			l-0.7,0.5L399,51l-1,1.1l-0.7,0.4l-0.5,0.6l-0.4,0.7l0.3,0.2L397.3,53.6z M400.9,52.4l-0.7,0.6l-0.6,0.5l-0.5,0.6l-1,1.3l-0.5,0.6
			l0.3,0.3l0.8-0.5l1-1.3l1.1-1l1-1.3l-0.3-0.3L400.9,52.4z M400.7,79.1l-0.9,0.3l-0.4,0.5l-0.9,0.9l0.4,0.4l1.3-1.3L400.7,79.1z
			 M402,54.4l-0.5,0.4l-0.5,0.5l-1.1,1l-0.5,0.7l-0.4,1l0.8-0.4l0.7-0.4l0.6-0.4l0.6-0.5l0.5-0.6l0.4-0.6l0.4-0.7l-0.1-0.7L402,54.4
			z M400.2,37l0.4,0.4l0.7-0.4l0.6-0.6l0.4-0.7l0.4-0.9l0.1-0.1l-1,0.7l-0.7,0.5l-0.6,0.5L400.2,37z M402.9,56.4l-1,1.2l-0.4,0.6
			l-0.4,0.7l-0.1,0.7l1.5-1.3l1.3-1.2l0.6-0.6l0.7-1h-1l-0.7,0.4L402.9,56.4z M405.7,80.7l-0.6-0.1l-0.7,0.6l-1.8,1.8l-0.6,0.5
			l-1,1.2l0.2,0.3l0.7-0.5l0.6-0.6l0.4-0.6l0.8-0.8l0.9-0.7l0.7-0.4L405.7,80.7z M401.2,81.2l0.2,0.4l0.8-1l0.9-1l1.1-0.7l0.6-0.6
			l-0.6-0.3l-0.5,0.6l-0.7,0.8l-1,0.9L401.2,81.2z M405.1,57.5l-0.7,0.6l-1,1.3l0.4,0.5l0.7-0.4l0.7-0.5l0.6-0.7l0.4-0.7l-0.4-0.5
			L405.1,57.5z M407.2,62l-1,1l-1,1.1l-1.5,1.7l0.5,0.3l0.7-0.5l0.6-0.5l0.6-0.6l0.5-0.6l0.6-0.6l0.7-0.9l0.7-0.6l0.4-0.5l0.3-0.7
			h-0.4l-0.7,0.7L407.2,62z M406.5,59.5l-1,1l-1,1.2l-0.4,0.6l0.3,0.3l1.2-0.9l0.6-0.5l1-1.2l0.4-0.7l-0.4-0.3L406.5,59.5z
			 M404.9,84.4l-0.4,0.1l0.1,0.2L404.9,84.4z M406.2,67.3l0.5-0.6l-0.3-0.4l-0.6,0.6l-0.4,0.8L406.2,67.3z M407.1,40.4l1-1.1l1.2-1
			l-0.4-0.4l-1,1.2l-1.7,1.5l0.3,0.4L407.1,40.4z M406.2,76.2l0.1,0.7l0.5-0.4L406.2,76.2z M411,78.7l-0.3-0.3l-0.7,0.5l-0.7,0.6
			l-0.6,0.5l-1.8,1.8l-0.7,0.9l-0.1,0.4l0.8-0.5l0.7-0.4l0.5-0.6l0.6-0.5l0.5-0.6l1.1-1.2L411,78.7z M410.3,65.7l-0.6,0.5l-0.6,0.6
			l-1.5,1.7L407,69l-0.4,0.6h0.4l0.7-0.6l0.8-0.7l0.8-0.8l0.5-0.7l0.6-0.6l0.5-0.6l0.1-0.7L410.3,65.7z M408.7,45.5l1.3-1.2l0.6-0.6
			L411,43l0.6-0.6l0.7-0.7l0.4-0.4l0.5-0.7l-0.2-0.2l-0.6,0.7l-0.4,0.3l-0.7,0.7l-0.6,0.4l-0.6,0.5l-1.6,1.6l-0.7,0.9H408.7z
			 M408.5,41.6l-0.6,0.6l0.4,0.4L409,42L408.5,41.6z M409.4,63.1l-0.6,0.4l-0.5,0.6l-0.4,0.6l0.4,0.4l0.7-0.4l0.6-0.5l0.5-0.7
			l0.4-0.7l-0.5-0.3L409.4,63.1z M414.4,42.4l-0.7,0.4l-0.6,0.6l-0.6,0.5l-0.6,0.6l-1.2,1.1l-0.4,0.7l-0.5,0.8l-0.7,0.5l-0.4,0.6
			l0.7-0.4l0.5-0.7l0.5-0.3l0.9-0.7l0.6-0.6l0.5-0.6l0.6-0.5l1-1.2L414.4,42.4z M409.1,70.8l0.5-0.5l-0.3-0.4l-0.6,0.4L409.1,70.8z
			 M411.2,71.4l-0.9,0.8l-0.7,0.5l-0.5,0.7l0.3,0.4l0.7-0.4l0.6-0.7l0.7-1l0.4-0.6l0.4-0.4l-0.2-0.1l-0.2,0.6L411.2,71.4z
			 M410.1,40.1l0.2,0.3l0.9-0.7l-0.4-0.4L410.1,40.1z M412.1,48.1l-0.2-0.2l-0.7,0.4l-0.5,0.6l-0.2,0.7l0.5-0.4l0.7-0.5L412.1,48.1z
			"/>
	</g>
</g>
</svg>
