<?xml version="1.0" encoding="utf-8"?>
<!-- Generator: Adobe Illustrator 22.0.1, SVG Export Plug-In . SVG Version: 6.00 Build 0)  -->
<svg version="1.1" id="Layer_1" xmlns="http://www.w3.org/2000/svg" xmlns:xlink="http://www.w3.org/1999/xlink" x="0px" y="0px"
	 viewBox="0 0 150 100" style="enable-background:new 0 0 150 100;" xml:space="preserve">
<style type="text/css">
	.st0{fill:#535454;}
</style>
<g>
	<polygon class="st0" points="8.1,38.1 8.7,32.8 9.9,26 12,23.8 14.7,20.7 17.1,18.2 20.8,16.6 27.2,12.5 30.6,10.9 35.2,9.2 
		38.4,8.6 46.6,7 49.9,6.4 53.8,5.3 57.1,4.9 60.4,4.9 72,3.7 79.2,4.1 84.9,4.9 88,4.9 92.9,6 96.6,6.6 100.3,6.6 110.5,9.2 
		114.2,9.8 123.9,14.3 129,17 132.5,19.3 135.7,21.5 138.4,24.6 140.9,28.9 140.9,33.6 140.5,37.7 140.1,41 134.7,43.6 130.6,43.4 
		127.1,43.4 119.4,42.6 111.6,43.4 107.1,45.3 95.4,46.3 91.1,45.3 83.7,45.1 79.6,44.7 72.8,46.7 64.7,48.4 61,48.2 57.1,47.5 
		54.2,46.7 46.6,44.5 38.4,42.6 34.5,43.4 26.5,44.7 22.4,44.7 19.2,44.9 14.7,44.7 10.2,42.8 	"/>
	<polygon class="st0" points="141.9,74.2 140.5,80.3 138.2,83.6 134.7,87.3 129.8,90.6 120.8,92.6 117.1,93.6 109.1,94.5 
		101.5,94.3 94,94.7 90.5,95.7 85.8,95.9 81.9,95.9 78.6,95.7 66.1,96.3 61.4,96.1 53,94.7 48.5,93.8 41.1,93.4 32.7,93.6 25.5,92 
		21.6,90.8 14.9,87.5 9.5,81.6 8.7,77.7 10.4,71.3 13.2,72.7 20.8,75.4 24.9,76.4 33.7,77.9 37.8,78.1 46,76 52.6,76.2 58.1,78.3 
		63.8,77.9 66.9,77 78.8,76.8 83.7,76.2 90.7,75.8 95.8,73.6 100.5,73.2 103.8,74 108.1,74.8 115.5,75 122.6,74.6 129.8,72.3 
		134.1,70.9 138.4,70.3 	"/>
	<polygon class="st0" points="12.6,53.9 15.1,51 21.4,51 27.6,50.8 31.9,52.3 37.2,53.9 41.5,52 48.9,51.8 53.6,54.7 57.7,54.1 
		63.6,52 69.6,56.1 72.8,54.9 75.3,52.9 78.6,51.6 85.3,51.2 88.8,52 94.4,52.9 99.1,53.1 104.2,50.8 111,50 118.1,51 121,49.6 
		127.6,49.6 131.7,49 134.5,52.3 135.1,58.8 131,64.1 127.1,65.2 122.6,66.8 117.1,67.4 110.1,68.4 107.5,69.7 99.1,68.8 91.9,68.8 
		85.8,70.1 79.8,70.9 75.5,70.1 71.4,68.6 66.1,68.4 59.9,69.9 56.3,69.3 53,67.8 48.9,67.4 41.5,69.3 34.1,69.9 30.6,70.3 
		27.2,69.1 22.9,68.8 19.6,67.8 13.8,63.5 12.8,61.3 12.4,56.1 	"/>
</g>
</svg>
