<?xml version="1.0" encoding="utf-8"?>
<!-- Generator: Adobe Illustrator 22.0.1, SVG Export Plug-In . SVG Version: 6.00 Build 0)  -->
<svg version="1.1" id="Layer_1" xmlns="http://www.w3.org/2000/svg" xmlns:xlink="http://www.w3.org/1999/xlink" x="0px" y="0px"
	 viewBox="0 0 600 150" style="enable-background:new 0 0 600 150;" xml:space="preserve">
<style type="text/css">
	.st0{fill:none;stroke:#DCD1A7;stroke-miterlimit:10;}
	.st1{fill:#FFFFFF;}
	.st2{fill:#535454;}
	.st3{font-family:'ZingRustLD2-BaseSh4';}
	.st4{font-size:70.3302px;}
	.st5{letter-spacing:1;}
	.st6{letter-spacing:-1;}
</style>
<g>
	<g>
		<path class="st0" d="M85.7,28.7H26.6c0,0,2.4,6,7.2,12.1s4.8,6,4.8,6L23,64.9l15.7,16.9l-13.3,18c0,0-2.4,1.2,1.2,2.4
			s43.4,0,43.4,0v13.3c0,0-1.2,2.4,4.8,2.4s455.8,0,455.8,0s3.6,0,2.4-2.4c-1.2-2.4,0-10.9,0-10.9s44.6,0,43.4-1.2
			S560.8,84.1,562,81.7s13.3-14.5,14.5-15.7s-16.9-16.9-15.7-19.3c1.2-2.4,14.5-16.9,15.7-16.9s-60.3-2.4-62.7-1.2
			c-2.4,1.2,0.6,13.9-0.6,13.9S90,42.5,90,42.5S92.3,28.1,85.7,28.7z"/>
		<g>
			<path class="st1" d="M76.7,47.1l-1.2,0.1l-1,0.6l-0.9,1l-0.3,1.3L73,52.5V55l0.1,1.2l0.1,1.3v1.2l0.1,2.5v11l-0.1,1.4v1.2
				l0.1,1.3l-0.1,1.2l0.1,1.3V81l-0.1,1l0.1,1.3v8.6l-0.1,1.3v1.3l0.1,1.2v3.6l-0.1,1.3v1.3l0.1,1.2l-0.1,2.6v2.3l-0.1,1.3v1.2
				l0.1,1.3l0.6,1.2l0.7,0.7l1.2,0.7l1,0.1l2.6,0.3l1.2-0.1l1.3,0.1h2.3l1.3,0.1h1.3l1,0.1H89l1.2,0.1h2.6l1,0.1l1.3,0.1h3.5
				l1.3-0.1h1.3l1.2,0.1l1.2-0.1h3.6l1.4-0.1l1,0.1l1.2-0.3l3.7-0.1l1.3-0.1h1.3l2.6-0.3v7.6l-1.3,0.1l-1.2-0.3l-1.3,0.1l-1.2,0.1
				h-1.3l-1.2,0.1H111l-1,0.1h-2.5l-1.3-0.1l-1.2,0.3l-1.3-0.1h-2.4l-1.2-0.1l-1.4,0.3l-1.3-0.1l-1.2-0.1L95,122l-1.2-0.1l-1.3-0.1
				l-1.2-0.1l-1.4-0.1l-1.3-0.1h-2.4l-1.2-0.1h-1.4l-2.5,0.1h-3.9l-1.2,0.1l-3.7,0.4l-1.2-0.1l-1.3,0.1l-1.2-0.1l-1.2-0.6l-1-0.7
				l-0.4-1l-0.1-2.3l-0.1-1.3v-3.5l0.1-2.4v-1.3l-0.4-0.9l-1-0.7l-1.3-0.3l-2.4-0.1h-5l-1.2-0.3l-2.5,0.1l-2.4-0.1l-1.2-0.1
				l-1.2,0.1h-1.2l-1.2-0.1l-1.2,0.1l-1.2-0.1l-1.3,0.1l-3.5,0.3l-1.4,0.1l-1,0.3h-1.4l-1.2,0.1h-1.2l-1.3,0.1h-1.3l-1-0.1l-1.3-0.3
				l-1.2-0.4l-2.6-1l-1.6-1.9l-0.3-2.6l0.4-1.2l0.4-1.3l0.6-1l0.4-1.2l0.9-1l0.7-1l0.7-1.2l0.9-1l0.7-0.9l1-0.9l2.3-2.7l0.7-0.9
				L32,86l0.7-0.9l1.2-2l0.6-1.4l-0.9-1.4l-1-0.9L30.7,78l-0.9-1l-1-0.9l-1.7-1.6l-0.9-0.9l-0.9-1l-1-0.9l-1.9-1.9l-0.9-0.7
				l-1.7-1.7l-0.3-1.3v-1l0.4-1.2l1.4-2l1-0.9l0.7-1l0.9-0.9l0.9-1.2l1-0.9l1.7-1.9l0.9-0.7l0.7-0.7l1-0.9l1.6-1.6l1.4-1.7l1-2.2v-1
				l-0.3-1l-0.9-1L32,43.4l-0.6-0.9L30,41.2l-1-1l-0.7-0.9l-1-1.2l-0.7-0.7l-1-1.2l-0.7-0.7l-1.7-2l-0.9-0.9l-1-0.9l-1.3-2l-0.4-1
				l0.1-1l0.9-2l0.7-0.6l1.2-0.4l2.2-0.4l1.3,0.1l1.3-0.1l1,0.1l1.3-0.1l1.3,0.1h6.2l2.3-0.1l2.5,0.1l2.4-0.1h1.4l1,0.1l1.3-0.1h6.2
				l1.3,0.1l1.2-0.1h1.2l1.4,0.1l1.2-0.1l1.2,0.1h2.5l1.3-0.1h3.7l2.3,0.1h1.3l2.4-0.1l1.3,0.1H79l1.2-0.1h3.7l2.3,0.1l1.4-0.1
				l1,0.1h1.3l1.2-0.1l2.6,0.3l1,0.6l0.9,0.7l0.6,1.2v2.3l-0.3,1.3L95.3,33L95,34.3l0.1,1.2v1.3l0.7,1.2l2,1.3l1.2,0.1l2.6,0.1h2.5
				l1.2,0.1l1.2-0.1l1.2,0.1l1.3-0.3h5.9l1.2,0.1l2.6-0.3l1.2-0.1v7.8H117l-1,0.1h-2.6l-2.3,0.3h-7.6l-1-0.1h-1.3L98.9,47h-1.3
				l-1.3-0.1H95l-1.2-0.1h-1.3l-1,0.1l-2.6-0.1h-1.3l-1,0.1L85.3,47H84l-1.3-0.1L81.6,47H78L76.7,47.1z M73.8,37.8l1-0.3l1.3-0.6
				l1.3-0.4l4.6-1.7l1-0.4l1.3-0.6l1.7-1l-1.2-0.9L82.2,32L81,31.9h-3.7L76,32h-6.2l-1.3-0.1l-1,0.1h-2.6l-1.3-0.1L62.3,32L61,31.9
				h-1.2L58.7,32l-2.5-0.1h-2.6L52.5,32l-1.2-0.1L49.9,32H39.8l-1.2-0.3l-2.4-0.1l-1.4-0.1l-2.5-0.3l-0.7,0.7l2.6,3l1.7,1.9l2.5,2.4
				l1.6,1.7l0.7,1l1,0.9l0.7,0.9l1.4,1.9l0.3,1v1.2l-0.3,1l-2.3,2.7l-1,1l-0.7,1l-1,0.9l-0.9,1l-1.6,2l-0.9,0.9l-0.9,1L33.8,60
				l-2.9,2.9l-1.2,1.4l-0.3,1.9l0.4,1l0.9,0.9l0.9,1l1,0.7l0.9,0.9l1.2,0.6l1.6,1.7l1.7,1.6l0.9,0.9l1,0.7l0.7,0.9l0.9,0.7l1.6,2.2
				l0.4,1.3l-0.1,1.3l-1.4,2l-0.7,1.2l-0.7,0.9l-0.9,1l-0.6,1l-1.6,2l-0.9,0.9l-0.7,1l-1,0.9l-0.7,1l-0.9,0.9l-0.6,1L31,98.9
				l3.3,0.7l1.3,0.1l1.3-0.1h1.2l2.7-0.1H42l1.2-0.1l1.2,0.1H48l1.3-0.1h2.6l1.2,0.1l1.2-0.1l2.6,0.1l1.2-0.1l1.3,0.1l2.6,0.1h1.3
				l2.3-0.6l0.7-1.2l0.3-0.9l0.1-1.3l-0.1-1.2l0.1-1.2l-0.1-2.3v-1.2l-0.1-1.3l-0.1-1.2l0.1-1.3L66,85l0.1-1.4v-1.2L66,81.3L65.9,80
				l0.1-1.2l-0.1-1.3v-1.2L66,75l-0.1-1.2v-7.3l-0.1-1.3v-2.4l0.3-1.2L66,60.4v-2.6l0.1-2.5v-6.2l0.1-2.5l-0.1-1v-1.3l0.1-1.3l0.1-1
				l1.4-2.2l1-0.6l1.3-0.6l2.4-0.7L73.8,37.8z"/>
			<path class="st1" d="M178.8,39.2l1.3-0.1V47h-1.3l-1.2,0.1l-1.3-0.1h-1.2l-1.3-0.1h-2.5l-1.2-0.1H164l-1.2-0.1l-1.3,0.1h-1.3
				l-2.4-0.1l-1.2,0.1H154l-1.2-0.1l-1.2,0.1H149l-1.3-0.1l-1.2,0.1H143l-1.2,0.1h-1.3l-1.2-0.1l-1.2,0.1h-3.9L133,47h-3.6l-2.5-0.1
				h-7.5v-7.8l1.2,0.1h2.6l1.2-0.1L127,39l1,0.1l3.7-0.1l1.3-0.1l1.2,0.1h1.2l1.3,0.1L139,39l1.3-0.1l1.2,0.1l2.4-0.1h1.3l2.6,0.3
				l2.3-0.1l1.3,0.1l1.2-0.3l2.5,0.1l1.4,0.1h1l1.3,0.1h1.4l1-0.1l1.4,0.1h1l1.4,0.1l1.3-0.3l1.2,0.3l1.2-0.1h1.3l1.3,0.1l1.2-0.1
				l1.3-0.1h1.4l1.2,0.1H178.8z M175.8,114.3h4.3v7.6h-0.3l-1.7,0.1h-2.4l-1.3,0.1l-1.2-0.1h-1.3l-1.2,0.1l-1.3-0.1h-1.3l-1.3,0.1
				l-1.2,0.1h-1.3l-1.2-0.1l-1.3,0.1l-1.2,0.1l-2.4-0.1h-1.3l-1.3,0.1l-1.2-0.1l-1.3,0.1l-1.2-0.1l-2.6,0.3l-1.2-0.1h-4.9l-1.3,0.1
				l-1.2-0.1l-2.4-0.1l-1.2,0.1H136l-1.2-0.1l-1.2,0.1l-1.3-0.1L131,122h-1.3l-1.3,0.1l-1-0.1l-1.3,0.1L125,122l-1.2,0.1l-2.7-0.3
				h-1.4v-7.6l1.3,0.1l1-0.1h1.3l1.2,0.1h5l1.3,0.1l1-0.1h1.4l1,0.1l3.9-0.1l1-0.1h1.3l1.2,0.1l2.6-0.1l1.2,0.1l1.3-0.1h4.8l1.2-0.1
				l1.3,0.1h2.5l1.2-0.1l1.3,0.1l1.3-0.1h2.3l1.3,0.1h1.2l1.3-0.1h1.2l1.3-0.1l1.3,0.1h4.8L175.8,114.3z"/>
			<path class="st1" d="M239.3,39.2l1.3-0.1V47h-1.3l-1.2,0.1l-1.3-0.1h-1.2l-1.3-0.1H232l-1.2-0.1h-6.3l-1.2-0.1l-1.3,0.1h-1.3
				l-2.4-0.1l-1.2,0.1h-2.6l-1.2-0.1l-1.2,0.1h-2.6l-1.3-0.1l-1.2,0.1h-3.7l-1.2,0.1H201l-1.2-0.1l-1.2,0.1h-3.9l-1.2,0.1h-3.6
				l-2.5-0.1h-7.5v-7.8l1.2,0.1h2.6l1.2-0.1l2.6-0.1l1,0.1l3.7-0.1l1.3-0.1l1.2,0.1h1.2l1.3,0.1l2.3-0.1l1.3-0.1L202,39l2.4-0.1h1.3
				l2.6,0.3l2.3-0.1l1.3,0.1l1.2-0.3l2.5,0.1l1.4,0.1h1l1.3,0.1h1.4l1-0.1l1.4,0.1h1l1.4,0.1l1.3-0.3l1.2,0.3l1.2-0.1h1.3l1.3,0.1
				l1.2-0.1l1.3-0.1h1.4l1.2,0.1H239.3z M236.3,114.3h4.3v7.6h-0.3l-1.7,0.1h-2.4l-1.3,0.1l-1.2-0.1h-1.3l-1.2,0.1L230,122h-1.3
				l-1.3,0.1l-1.2,0.1h-1.3l-1.2-0.1l-1.3,0.1l-1.2,0.1l-2.4-0.1h-1.3l-1.3,0.1l-1.2-0.1l-1.3,0.1l-1.2-0.1l-2.6,0.3l-1.2-0.1H204
				l-1.3,0.1l-1.2-0.1l-2.4-0.1l-1.2,0.1h-1.4l-1.2-0.1l-1.2,0.1l-1.3-0.1l-1.3-0.3h-1.3l-1.3,0.1l-1-0.1l-1.3,0.1l-1.3-0.1
				l-1.2,0.1l-2.7-0.3H180v-7.6l1.3,0.1l1-0.1h1.3l1.2,0.1h5l1.3,0.1l1-0.1h1.4l1,0.1l3.9-0.1l1-0.1h1.3l1.2,0.1l2.6-0.1l1.2,0.1
				l1.3-0.1h4.8l1.2-0.1l1.3,0.1h2.5l1.2-0.1l1.3,0.1l1.3-0.1h2.3l1.3,0.1h1.2l1.3-0.1h1.2l1.3-0.1l1.3,0.1h4.8L236.3,114.3z"/>
			<path class="st1" d="M299.8,39.2l1.3-0.1V47h-1.3l-1.2,0.1l-1.3-0.1h-1.2l-1.3-0.1h-2.5l-1.2-0.1H285l-1.2-0.1l-1.3,0.1h-1.3
				l-2.4-0.1l-1.2,0.1H275l-1.2-0.1l-1.2,0.1H270l-1.3-0.1l-1.2,0.1H264l-1.2,0.1h-1.3l-1.2-0.1l-1.2,0.1h-3.9L254,47h-3.6l-2.5-0.1
				h-7.5v-7.8l1.2,0.1h2.6l1.2-0.1L248,39l1,0.1l3.7-0.1l1.3-0.1l1.2,0.1h1.2l1.3,0.1L260,39l1.3-0.1l1.2,0.1l2.4-0.1h1.3l2.6,0.3
				l2.3-0.1l1.3,0.1l1.2-0.3l2.5,0.1l1.4,0.1h1l1.3,0.1h1.4l1-0.1l1.4,0.1h1l1.4,0.1l1.3-0.3l1.2,0.3l1.2-0.1h1.3l1.3,0.1l1.2-0.1
				l1.3-0.1h1.4l1.2,0.1H299.8z M296.8,114.3h4.3v7.6h-0.3l-1.7,0.1h-2.4l-1.3,0.1l-1.2-0.1h-1.3l-1.2,0.1l-1.3-0.1h-1.3l-1.3,0.1
				l-1.2,0.1h-1.3l-1.2-0.1l-1.3,0.1l-1.2,0.1l-2.4-0.1h-1.3l-1.3,0.1l-1.2-0.1l-1.3,0.1l-1.2-0.1l-2.6,0.3l-1.2-0.1h-4.9l-1.3,0.1
				l-1.2-0.1l-2.4-0.1l-1.2,0.1h-1.4l-1.2-0.1l-1.2,0.1l-1.3-0.1l-1.3-0.3h-1.3l-1.3,0.1l-1-0.1l-1.3,0.1L246,122l-1.2,0.1l-2.7-0.3
				h-1.4v-7.6l1.3,0.1l1-0.1h1.3l1.2,0.1h5l1.3,0.1l1-0.1h1.4l1,0.1l3.9-0.1l1-0.1h1.3l1.2,0.1l2.6-0.1l1.2,0.1l1.3-0.1h4.8l1.2-0.1
				l1.3,0.1h2.5l1.2-0.1l1.3,0.1l1.3-0.1h2.3l1.3,0.1h1.2l1.3-0.1h1.2l1.3-0.1l1.3,0.1h4.8L296.8,114.3z"/>
			<path class="st1" d="M360.4,39.2l1.3-0.1V47h-1.3l-1.2,0.1l-1.3-0.1h-1.2l-1.3-0.1H353l-1.2-0.1h-6.3l-1.2-0.1l-1.3,0.1h-1.3
				l-2.4-0.1l-1.2,0.1h-2.6l-1.2-0.1l-1.2,0.1h-2.6l-1.3-0.1l-1.2,0.1h-3.7l-1.2,0.1H322l-1.2-0.1l-1.2,0.1h-3.9l-1.2,0.1h-3.6
				l-2.5-0.1h-7.5v-7.8l1.2,0.1h2.6l1.2-0.1l2.6-0.1l1,0.1l3.7-0.1l1.3-0.1l1.2,0.1h1.2l1.3,0.1l2.3-0.1l1.3-0.1L323,39l2.4-0.1h1.3
				l2.6,0.3l2.3-0.1l1.3,0.1l1.2-0.3l2.5,0.1l1.4,0.1h1l1.3,0.1h1.4l1-0.1l1.4,0.1h1l1.4,0.1l1.3-0.3l1.2,0.3l1.2-0.1h1.3l1.3,0.1
				l1.2-0.1l1.3-0.1h1.4l1.2,0.1H360.4z M357.3,114.3h4.3v7.6h-0.3l-1.7,0.1h-2.4l-1.3,0.1l-1.2-0.1h-1.3l-1.2,0.1L351,122h-1.3
				l-1.3,0.1l-1.2,0.1h-1.3l-1.2-0.1l-1.3,0.1l-1.2,0.1l-2.4-0.1h-1.3l-1.3,0.1l-1.2-0.1l-1.3,0.1l-1.2-0.1l-2.6,0.3l-1.2-0.1h-4.9
				l-1.3,0.1l-1.2-0.1l-2.4-0.1l-1.2,0.1h-1.4l-1.2-0.1l-1.2,0.1l-1.3-0.1l-1.3-0.3H311l-1.3,0.1l-1-0.1l-1.3,0.1l-1.3-0.1l-1.2,0.1
				l-2.7-0.3h-1.4v-7.6l1.3,0.1l1-0.1h1.3l1.2,0.1h5l1.3,0.1l1-0.1h1.4l1,0.1l3.9-0.1l1-0.1h1.3l1.2,0.1l2.6-0.1l1.2,0.1l1.3-0.1
				h4.8l1.2-0.1l1.3,0.1h2.5l1.2-0.1l1.3,0.1l1.3-0.1h2.3l1.3,0.1h1.2l1.3-0.1h1.2l1.3-0.1l1.3,0.1h4.8L357.3,114.3z"/>
			<path class="st1" d="M420.9,39.2l1.3-0.1V47h-1.3l-1.2,0.1l-1.3-0.1h-1.2l-1.3-0.1h-2.5l-1.2-0.1H406l-1.2-0.1l-1.3,0.1h-1.3
				l-2.4-0.1l-1.2,0.1H396l-1.2-0.1l-1.2,0.1H391l-1.3-0.1l-1.2,0.1H385l-1.2,0.1h-1.3l-1.2-0.1l-1.2,0.1h-3.9L375,47h-3.6l-2.5-0.1
				h-7.5v-7.8l1.2,0.1h2.6l1.2-0.1L369,39l1,0.1l3.7-0.1l1.3-0.1l1.2,0.1h1.2l1.3,0.1L381,39l1.3-0.1l1.2,0.1l2.4-0.1h1.3l2.6,0.3
				l2.3-0.1l1.3,0.1l1.2-0.3l2.5,0.1l1.4,0.1h1l1.3,0.1h1.4l1-0.1l1.4,0.1h1l1.4,0.1l1.3-0.3l1.2,0.3l1.2-0.1h1.3l1.3,0.1l1.2-0.1
				l1.3-0.1h1.4l1.2,0.1H420.9z M417.8,114.3h4.3v7.6h-0.3l-1.7,0.1h-2.4l-1.3,0.1l-1.2-0.1h-1.3l-1.2,0.1l-1.3-0.1h-1.3l-1.3,0.1
				l-1.2,0.1h-1.3l-1.2-0.1l-1.3,0.1l-1.2,0.1l-2.4-0.1h-1.3l-1.3,0.1l-1.2-0.1l-1.3,0.1l-1.2-0.1l-2.6,0.3l-1.2-0.1h-4.9l-1.3,0.1
				l-1.2-0.1l-2.4-0.1l-1.2,0.1h-1.4l-1.2-0.1l-1.2,0.1l-1.3-0.1l-1.3-0.3h-1.3l-1.3,0.1l-1-0.1l-1.3,0.1L367,122l-1.2,0.1l-2.7-0.3
				h-1.4v-7.6l1.3,0.1l1-0.1h1.3l1.2,0.1h5l1.3,0.1l1-0.1h1.4l1,0.1l3.9-0.1l1-0.1h1.3l1.2,0.1l2.6-0.1l1.2,0.1l1.3-0.1h4.8l1.2-0.1
				l1.3,0.1h2.5l1.2-0.1l1.3,0.1l1.3-0.1h2.3l1.3,0.1h1.2l1.3-0.1h1.2l1.3-0.1l1.3,0.1h4.8L417.8,114.3z"/>
			<path class="st1" d="M481.4,39.2l1.3-0.1V47h-1.3l-1.2,0.1l-1.3-0.1h-1.2l-1.3-0.1H474l-1.2-0.1h-6.3l-1.2-0.1l-1.3,0.1h-1.3
				l-2.4-0.1l-1.2,0.1h-2.6l-1.2-0.1l-1.2,0.1h-2.6l-1.3-0.1l-1.2,0.1h-3.7l-1.2,0.1H443l-1.2-0.1l-1.2,0.1h-3.9l-1.2,0.1h-3.6
				l-2.5-0.1h-7.5v-7.8l1.2,0.1h2.6l1.2-0.1l2.6-0.1l1,0.1l3.7-0.1l1.3-0.1l1.2,0.1h1.2l1.3,0.1l2.3-0.1l1.3-0.1L444,39l2.4-0.1h1.3
				l2.6,0.3l2.3-0.1l1.3,0.1l1.2-0.3l2.5,0.1l1.4,0.1h1l1.3,0.1h1.4l1-0.1l1.4,0.1h1l1.4,0.1l1.3-0.3l1.2,0.3l1.2-0.1h1.3l1.3,0.1
				l1.2-0.1l1.3-0.1h1.4l1.2,0.1H481.4z M478.3,114.3h4.3v7.6h-0.3l-1.7,0.1h-2.4l-1.3,0.1l-1.2-0.1h-1.3l-1.2,0.1L472,122h-1.3
				l-1.3,0.1l-1.2,0.1H467l-1.2-0.1l-1.3,0.1l-1.2,0.1l-2.4-0.1h-1.3l-1.3,0.1l-1.2-0.1l-1.3,0.1l-1.2-0.1l-2.6,0.3l-1.2-0.1h-4.9
				l-1.3,0.1l-1.2-0.1l-2.4-0.1l-1.2,0.1h-1.4l-1.2-0.1l-1.2,0.1l-1.3-0.1l-1.3-0.3h-1.3l-1.3,0.1l-1-0.1l-1.3,0.1l-1.3-0.1
				l-1.2,0.1l-2.7-0.3h-1.4v-7.6l1.3,0.1l1-0.1h1.3l1.2,0.1h5l1.3,0.1l1-0.1h1.4l1,0.1l3.9-0.1l1-0.1h1.3l1.2,0.1l2.6-0.1l1.2,0.1
				l1.3-0.1h4.8l1.2-0.1l1.3,0.1h2.5l1.2-0.1l1.3,0.1l1.3-0.1h2.3l1.3,0.1h1.2l1.3-0.1h1.2l1.3-0.1l1.3,0.1h4.8L478.3,114.3z"/>
			<path class="st1" d="M573.7,90.1l0.7,0.9l1,1l0.6,1l0.7,1.2l0.7,0.9l0.6,1l0.7,1.2l0.7,0.9l0.6,1.2l0.9,1l1.4,2.2v1.3l-1.3,2.5
				l-1,0.7l-2.4,0.3h-6.2l-1.3-0.1l-1.2,0.1l-1.3-0.1h-2.4l-1.2-0.1h-1.3l-2.3-0.1l-1.3,0.1l-2.6-0.3l-1-0.1l-2.6,0.1l-1.3-0.1
				l-2.5-0.1l-1.3,0.1l-1.3-0.1h-3.9l-1.2,0.1l-1.3,0.1l-1.4,0.3l-1.2,0.3l-1.4,1.9v1.3l-0.3,1.2l0.1,1v2.5l0.3,1.2l0.1,1.2v2.5
				l-0.7,1l-0.7,0.7l-1.2,0.4l-1,0.3l-1.3,0.1h-1l-3.5-0.4l-1.2,0.1l-1.3,0.1l-1.2-0.1l-1.2,0.1l-1.2,0.3l-1.3-0.1l-2.3,0.1h-3.6
				l-5-0.3l-1.3-0.1l-1,0.1h-2.5l-1.3-0.1h-1.2l-3.6-0.1l-1.3-0.3h-4.8l-1.3-0.1l-1.3,0.3l-1.2-0.1h-1l-3.6,0.4H482V115l1.2-0.1
				l1.3,0.1l2.6-0.1h1l1.4,0.1h1.2l3.7,0.1l1.2-0.1l1.2,0.3h3.7l1.2,0.1h1.3l1.3,0.1h8.5l1.2-0.1l1.3,0.1h1.2l1.3-0.1h6.1l1-0.1
				l1.2-0.1l1.3-0.4l0.9-1.7l0.4-1.3l0.1-1.3l-0.1-1.3l0.1-2.3l-0.1-1.2l-0.3-1.3l0.1-1.2l-0.1-1l-0.1-1.3l0.3-2.3V94l-0.1-1.4
				l0.1-1.2l0.1-1.4v-2.5l-0.1-1.2l0.1-1.2v-1.3l0.1-1.2l-0.1-1.2l0.1-1.3v-3.6l0.1-1v-2.6l0.1-1l-0.1-1.2l0.1-1.3V66l0.1-1.2
				l-0.1-1.2l0.1-1.3v-1.2l-0.1-1.3v-2.5l0.1-2.4v-1.3l0.1-1.3l-0.3-1l-0.1-1.3l0.2-1l-1.2-1.6l-1.6-0.3l-1.3,0.1l-1.3-0.1h-2.4
				l-1,0.1l-1.3-0.1h-1.3l-1,0.1l-1.3-0.1l-2.5,0.1l-1.3-0.3l-3.9-0.3l-1.3,0.1H505l-2.6,0.1h-7.2l-1.3,0.1l-1.2-0.1l-1.3,0.1
				l-2.5-0.1H484l-1.3-0.1v-7.8L484,39h8.8l1.2,0.1l1.3,0.3l1.4,0.3h1.2l1.3,0.1l2.4-0.4l1.2,0.1l1.2-0.1l1.6-0.9l0.4-1.2l0.3-1
				l-0.1-1.3l0.4-3.5l0.1-1.3l0.4-2.7l0.1-1.2l2.3-1.6l2.6-0.1l1.3,0.1l1.2-0.1l1.2,0.1l2.3-0.1h1.2l1.3,0.1l1.2,0.1l1.2-0.1h2.5
				l1.2,0.3h1.4l1.2,0.1h2.4l1.4,0.1l1.3,0.1l2.5,0.1l1.3-0.1h4.9l1.3-0.1l1.2,0.1l3.7-0.1l1.2-0.1l1.3-0.1l3.7-0.1h1.3l2.4-0.1
				l1.2-0.1l2.3-0.1h1.3l2.3-0.3l1.2,0.1l1.3-0.1l1-0.1l2.3-0.1l1.3-0.1l2.5-0.1l2.6,0.3l1.2,0.1l1.2,0.6l1,0.9l1.2,2.3l-0.1,1.2
				l-0.4,1.3l-0.7,1l-0.7,0.9l-1,1l-0.7,0.9l-2.6,2.6l-0.7,0.9l-0.9,0.6l-1.9,1.9l-0.6,0.9l-0.9,0.7l-0.9,1l-0.7,0.9l-0.9,0.7
				l-1.3,1.4l-0.7,1.4l0.4,1.6l1.2,1.6l0.9,0.7l2,1.7l1,0.6l0.7,1l2.7,2.4l0.9,0.9l0.9,1l1.6,1.6l0.7,1l0.9,0.9l1.3,1.9l0.4,1.3
				l-0.4,1.2l-0.4,1l-0.7,1.2l-0.9,0.9l-0.9,0.7l-1,0.9l-1,0.7l-1,0.9l-1.7,1.6l-1,0.7l-2.6,2.6l-1,0.9l-0.7,0.9l-1,1.3l-0.3,1
				l1,1.7l0.6,1l1.4,1.7l0.7,1l1.7,1.9L573.7,90.1z M569.1,99.7l1.2-0.6l-0.9-2l-0.9-0.9l-0.6-1L567,94l-0.7-0.9l-1.4-2l-0.9-1
				l-0.7-1.2l-1.6-1.9l-0.9-0.9l-0.6-1.2l-0.9-1l-0.7-2.2v-1.2l0.6-1l0.4-1l1.6-1.9l1.9-2l0.9-0.7l0.7-1l1.2-0.9l0.9-0.9l1.9-1.4
				l1-0.9l1-0.7l0.7-1l0.9-0.9l0.1-1.2l-1-2.5l-0.7-0.7l-0.9-1.2l-0.7-0.9l-0.9-1l-0.7-0.9l-0.9-0.9l-1-0.9l-1.7-1.7l-1.2-0.6l-1-1
				l-0.9-0.6l-1-1l-0.9-1l-0.7-2.6l0.7-2.6l0.6-0.9l0.9-1l0.9-0.9l1-0.9l1.7-1.9l1.7-2l0.7-0.9l0.9-1l1-1l1.4-1.9l-0.3-1l-1.3-0.4
				l-1.3-0.1h-1.2l-1.2,0.3h-3.9l-1,0.1l-1.3-0.1l-2.6,0.1l-1-0.1h-1.3l-1.3,0.1h-4.9l-1.2-0.1l-2.5,0.1H541l-2.5-0.1h-1.3l-2.3,0.1
				h-1.3l-1.2-0.1l-5.9,0.1l-1.3-0.1H523l1.2,1.3l1.7,1.4l1,0.6l2.3,1.2l1.9,1.2l0.9,0.6l3,2.2l0.1,0.1l0.4,0.3l0.1,0.1l0.1,0.4
				l0.3,0.1l0.1,0.4l0.1,0.3v0.3l0.1,0.6v1.4l-0.1,1.3l0.1,1.2V49l-0.1,1.2l0.1,1.2v6.2l-0.1,1.3v1.3l0.1,1.2l-0.1,1.3l0.1,1.3
				l-0.3,1.2l0.1,1.3l-0.1,1.2l0.1,1.3l-0.1,1.3l0.1,1.2l-0.1,1.3v1.3l0.1,1.2V77l-0.1,1.3l0.1,2.3V83l-0.1,1.3l0.1,1.3v1l0.1,1.3
				l0.1,2.5v3.7l-0.3,2.3l0.1,1.2l0.3,1.2l2,1l2.2-0.1h1.3l2.3,0.1h2.4l3.7-0.1h1.3l2.4,0.1l1.2-0.1h6.1l1.4-0.1l1,0.1h3.7
				L569.1,99.7z"/>
		</g>
	</g>
	<text transform="matrix(1 0 0 1 91.6597 104.1309)" class="st2 st3 st4 st5">E</text>
	<text transform="matrix(1 0 0 1 120.6597 104.1309)" class="st2 st3 st4 st6">a</text>
	<text transform="matrix(1 0 0 1 149.6597 104.1309)" class="st2 st3 st4">t</text>
	<text transform="matrix(1 0 0 1 175.2597 104.1309)" class="st2 st3 st4">-</text>
	<text transform="matrix(1 0 0 1 201.7597 104.1309)" class="st2 st3 st4">D</text>
	<text transform="matrix(1 0 0 1 235.5597 104.1309)" class="st2 st3 st4">a</text>
	<text transform="matrix(1 0 0 1 266.4597 104.1309)" class="st2 st3 st4">-Bu</text>
	<text transform="matrix(1 0 0 1 362.4597 104.1309)" class="st2 st3 st4">r</text>
	<text transform="matrix(1 0 0 1 394.9597 104.1309)" class="st2 st3 st4">ger!</text>
</g>
</svg>
